<?xml version="1.0" encoding="utf-8"?>
<!-- Generator: Adobe Illustrator 25.0.1, SVG Export Plug-In . SVG Version: 6.00 Build 0)  -->
<!DOCTYPE svg PUBLIC "-//W3C//DTD SVG 1.1//EN" "http://www.w3.org/Graphics/SVG/1.1/DTD/svg11.dtd" [
	<!ENTITY ns_extend "http://ns.adobe.com/Extensibility/1.0/">
	<!ENTITY ns_ai "http://ns.adobe.com/AdobeIllustrator/10.0/">
	<!ENTITY ns_graphs "http://ns.adobe.com/Graphs/1.0/">
	<!ENTITY ns_vars "http://ns.adobe.com/Variables/1.0/">
	<!ENTITY ns_imrep "http://ns.adobe.com/ImageReplacement/1.0/">
	<!ENTITY ns_sfw "http://ns.adobe.com/SaveForWeb/1.0/">
	<!ENTITY ns_custom "http://ns.adobe.com/GenericCustomNamespace/1.0/">
	<!ENTITY ns_adobe_xpath "http://ns.adobe.com/XPath/1.0/">
]>
<svg version="1.1" id="Слой_1" xmlnsX="&ns_extend;" xmlnsI="&ns_ai;" xmlnsGraph="&ns_graphs;"
	 xmlns="http://www.w3.org/2000/svg" xmlnsXlink="http://www.w3.org/1999/xlink" x="0px" y="0px" viewBox="0 0 2689.9 2016.6"
	 style="enable-background:new 0 0 2689.9 2016.6;" xml:space="preserve">
<style type="text/css">
	.Тень{fill:none;}
	#path53444 {
		fill: #D4C7C0;
	}
	.Скругленные_x0020_углы_x0020_2_x0020_pt_x002E_{fill:#FFFFFF;stroke:#1D1D1B;stroke-miterlimit:10;}
	.Быстрое_x0020_отражение_x0020_X{fill:none;}
	.Скос_x0020_мягкий{fill:url(#SVGID_1_);}
	.Сумрак{fill:#FFFFFF;}
	.Лиственный_x0020_орнамент_чб{fill:#FFDD00;}
	.Помпадур_чб{fill-rule:evenodd;clip-rule:evenodd;fill:#51AEE2;}
	.st0{fill:#838E8E;fill-opacity:0.4;}
	.st1{fill:url(#path53102_1_);}
	.st2{fill:url(#path53104_1_);}
	.st3{fill:url(#path53106_1_);}
	.st4{fill:#C6CACB;}
	.st5{fill:url(#path53110_1_);}
	.st6{fill:url(#path53112_1_);}
	.st7{fill:url(#rect53114_1_);}
	.st8{fill:url(#path53116_1_);}
	.st9{fill:#29343D;}
	.st10{fill:url(#path53120_1_);}
	.st11{fill:url(#path53122_1_);}
	.st12{fill:url(#path53126_1_);}
	.st13{fill:#FDDDB8;}
	.st14{fill:url(#path53130_1_);}
	.st15{fill:url(#ellipse53132_1_);}
	.st16{fill:url(#rect53134_1_);}
	.st17{fill:url(#path53136_1_);}
	.st18{fill:url(#path53138_1_);}
	.st19{fill:url(#path53140_1_);}
	.st20{fill:#F6D344;}
	.st21{fill:url(#path53144_1_);}
	.st22{fill:url(#path53146_1_);}
	.st23{fill:url(#path53148_1_);}
	.st24{fill:url(#path53150_1_);}
	.st25{opacity:0.4513;}
	.st26{fill:url(#path53152_1_);}
	.st27{fill:url(#path53154_1_);}
	.st28{fill:url(#path53156_1_);}
	.st29{fill:url(#path53160_1_);}
	.st30{fill:url(#path53162_1_);}
	.st31{fill:url(#path53164_1_);}
	.st32{fill:url(#path53168_1_);}
	.st33{fill:url(#path53170_1_);}
	.st34{fill:url(#path53172_1_);}
	.st35{fill:url(#path53174_1_);}
	.st36{fill:url(#path53178_1_);}
	.st37{fill:url(#path53180_1_);}
	.st38{fill:url(#path53182_1_);}
	.st39{fill:url(#ellipse53186_1_);}
	.st40{fill:url(#path53188_1_);}
	.st41{fill:url(#path53190_1_);}
	.st42{fill:url(#path53192_1_);}
	.st43{fill:url(#path53196_1_);}
	.st44{fill:url(#path53198_1_);}
	.st45{fill:url(#path53200_1_);}
	.st46{fill:url(#path53204_1_);}
	.st47{fill:url(#path53206_1_);}
	.st48{fill:url(#path53208_1_);}
	.st49{fill:url(#path53212_1_);}
	.st50{fill:url(#path53214_1_);}
	.st51{fill:url(#path53216_1_);}
	.st52{fill:url(#path53220_1_);}
	.st53{fill:url(#path53222_1_);}
	.st54{fill:url(#path53224_1_);}
	.st55{fill:url(#path53228_1_);}
	.st56{fill:url(#path53230_1_);}
	.st57{fill:url(#path53232_1_);}
	.st58{fill:url(#path53236_1_);}
	.st59{fill:url(#path53238_1_);}
	.st60{fill:url(#path53240_1_);}
	.st61{fill:url(#path53242_1_);}
	.st62{fill:url(#path53246_1_);}
	.st63{fill:url(#path53248_1_);}
	.st64{fill:url(#path53250_1_);}
	.st65{fill:url(#path53254_1_);}
	.st66{fill:url(#path53256_1_);}
	.st67{fill:url(#path53258_1_);}
	.st68{fill:url(#path53260_1_);}
	.st69{fill:url(#path53262_1_);}
	.st70{fill:url(#path53264_1_);}
	.st71{fill:url(#path53268_1_);}
	.st72{fill:url(#path53270_1_);}
	.st73{fill:url(#path53272_1_);}
	.st74{fill:url(#path53276_1_);}
	.st75{fill:#F6BC00;}
	.st76{fill:#FFFFFF;}
	.st77{fill:url(#path53286_1_);}
	.st78{fill:#F6DC69;}
	.st79{fill:#F6D74D;}
	.st80{fill:url(#path53292_1_);}
	.st81{fill:url(#path53296_1_);}
	.st82{fill:url(#path53302_1_);}
	.st83{fill:url(#path53306_1_);}
	.st84{fill:url(#path53308_1_);}
	.st85{fill:url(#path53310_1_);}
	.st86{fill:url(#path53314_1_);}
	.st87{fill:url(#path53320_1_);}
	.st88{fill:#27303B;}
	.st89{fill:url(#path53326_1_);}
	.st90{fill:url(#path53328_1_);}
	.st91{fill:url(#path53330_1_);}
	.st92{fill:url(#path53332_1_);}
	.st93{fill:url(#path53334_1_);}
	.st94{fill:url(#path53336_1_);}
	.st95{fill:url(#path53338_1_);}
	.st96{fill:url(#path53342_1_);}
	.st97{fill:url(#path53344_1_);}
	.st98{fill:url(#path53346_1_);}
	.st99{fill:url(#path53348_1_);}
	.st100{fill:url(#path53352_1_);}
	.st101{fill:url(#path53354_1_);}
	.st102{fill:url(#path53356_1_);}
	.st103{fill:url(#path53360_1_);}
	.st104{fill:url(#path53362_1_);}
	.st105{fill:url(#path53364_1_);}
	.st106{fill:url(#path53366_1_);}
	.st107{fill:url(#path53370_1_);}
	.st108{fill:url(#path53372_1_);}
	.st109{fill:url(#path53374_1_);}
	.st110{fill:url(#path53380_1_);}
	.st111{fill:url(#path53382_1_);}
	.st112{fill:#2B383F;}
	.st113{fill:#F4CD26;}
	.st114{fill:url(#path53454_1_);}
	.st115{fill:url(#path53456_1_);}
	.st116{fill:url(#path53458_1_);}
	.st117{fill:url(#path53460_1_);}
	.st118{fill:url(#path53466_1_);}
	.st119{fill:url(#path53468_1_);}
	.st120{fill:url(#path53470_1_);}
	.st121{fill:url(#path53472_1_);}
	.st122{fill:url(#path53474_1_);}
	.st123{fill:url(#path53476_1_);}
	.st124{fill:url(#path53478_1_);}
	.st125{fill:url(#path53482_1_);}
	.st126{fill:url(#path53484_1_);}
	.st127{fill:url(#path53486_1_);}
	.st128{fill:url(#path53488_1_);}
	.st129{fill:url(#path53492_1_);}
	.st130{fill:url(#path53494_1_);}
	.st131{fill:url(#path53496_1_);}
	.st132{fill:url(#path53500_1_);}
	.st133{fill:url(#path53502_1_);}
	.st134{fill:url(#path53504_1_);}
	.st135{fill:url(#path53506_1_);}
	.st136{fill:url(#path53510_1_);}
	.st137{fill:url(#path53512_1_);}
	.st138{fill:url(#path53514_1_);}
	.st139{fill:url(#path293544_1_);}
	.st140{fill:url(#path293550_1_);}
	.st141{font-family:'Roboto-Medium';}
	.st142{font-size:87.9997px;}
	.st143{fill:url(#path293570_1_);}
	.st144{fill:url(#path293576_1_);}
	.st145{fill:#E0AB00;}
	
		.st146{fill:none;stroke:#2B393F;stroke-width:6.429;stroke-linecap:round;stroke-linejoin:round;stroke-miterlimit:15.1181;stroke-dasharray:12.858,12.858;}
</style>
<metadata>
	<sfw  xmlns="&ns_sfw;">
		<slices></slices>
		<sliceSourceBounds  bottomLeftOrigin="true" height="2016.6" width="2689.9" x="-384.8" y="-1262.9"></sliceSourceBounds>
	</sfw>
</metadata>
<linearGradient id="SVGID_1_" gradientUnits="userSpaceOnUse" x1="384.7504" y1="753.7389" x2="385.4575" y2="754.446">
	<stop  offset="0" style="stop-color:#E6E6EB"/>
	<stop  offset="0.1754" style="stop-color:#E2E2E7"/>
	<stop  offset="0.3552" style="stop-color:#D6D6DB"/>
	<stop  offset="0.5371" style="stop-color:#C2C3C6"/>
	<stop  offset="0.7204" style="stop-color:#A5A7A9"/>
	<stop  offset="0.9031" style="stop-color:#818485"/>
	<stop  offset="1" style="stop-color:#6B6E6E"/>
</linearGradient>
<g id="g59715" transform="matrix(3.7795276,0,0,3.7795276,-2522.7127,-2932.6936)">
	<g id="g53100" transform="translate(-5.9423761,654.38298)">
		<path id="path53096" class="st0" d="M1320.1,291.7l-0.4,314.5c-0.1,15.6-8.5,23.6-23.2,15.3l-182.1-105.2
			c-8.3-5.3-15.6-11.3-15.5-22.4V168.5c-0.4-13.1,8.2-13.8,16.1-8.4l195.9,113.3C1316.3,276.4,1320.2,282.8,1320.1,291.7
			L1320.1,291.7z"/>
		<path id="path53098" class="st0" d="M1106.3,128.3c2.6,0,5.7,1.2,8.7,3.2l195.9,113.3c5.4,3,9.3,9.4,9.2,18.3l0,48.7l-221.2-127
			v-45C1098.6,131.7,1101.9,128.4,1106.3,128.3L1106.3,128.3z"/>
	</g>
	
		<linearGradient id="path53102_1_" gradientUnits="userSpaceOnUse" x1="1203.1604" y1="1290.7007" x2="1196.4401" y2="1305.8842" gradientTransform="matrix(3.7795 0 0 -3.7795 -3838.4031 5723.6748)">
		<stop  offset="0" style="stop-color:#2B343E"/>
		<stop  offset="1" style="stop-color:#333F47"/>
	</linearGradient>
	<path id="path53102" class="st1" d="M705.3,821.9l-13.2,7.5v15.4l13.2,7.7l13.2-7.7v-15.4L705.3,821.9z"/>
	
		<linearGradient id="path53104_1_" gradientUnits="userSpaceOnUse" x1="1203.1604" y1="1290.7007" x2="1196.4401" y2="1305.8842" gradientTransform="matrix(3.7795 0 0 -3.7795 -3838.5271 5684.8257)">
		<stop  offset="0" style="stop-color:#2B343E"/>
		<stop  offset="1" style="stop-color:#333F47"/>
	</linearGradient>
	<path id="path53104" class="st2" d="M705.2,783l-13.2,7.5v15.4l13.2,7.7l13.2-7.7v-15.4L705.2,783z"/>
	
		<linearGradient id="path53106_1_" gradientUnits="userSpaceOnUse" x1="1322.6301" y1="1356.9492" x2="1315.9098" y2="1372.1327" gradientTransform="matrix(2.5277 0 0 -2.5277 -2586.4529 4221.687)">
		<stop  offset="0" style="stop-color:#2B343E"/>
		<stop  offset="1" style="stop-color:#333F47"/>
	</linearGradient>
	<path id="path53106" class="st3" d="M754.3,775.9l-8.8,5v10.3l8.8,5.2l8.8-5.2V781L754.3,775.9z"/>
	<path id="path53108" class="st4" d="M826.8,1141.2L734,1195c-9,5.9-11.7,15-4.1,19.9l119.4,69.1c2.1,1.1,4.1,1,6.1,0.9l-4.4-143.7
		L826.8,1141.2z"/>
	
		<linearGradient id="path53110_1_" gradientUnits="userSpaceOnUse" x1="1229.2659" y1="1147.8011" x2="1234.1638" y2="1093.913" gradientTransform="matrix(3.5863 -1.193 -1.193 -3.5863 -2275.3118 6603.6812)">
		<stop  offset="0" style="stop-color:#252D38"/>
		<stop  offset="1" style="stop-color:#2C3A40"/>
	</linearGradient>
	<path id="path53110" class="st5" d="M768,1080.9l36.2-16.2c-5.7-17.8-13.4-32.3-23.8-42.8c-12.3-11.6-30.5-0.9-27.2,15.8
		C756.9,1053.3,762.3,1067.2,768,1080.9z"/>
	
		<linearGradient id="path53112_1_" gradientUnits="userSpaceOnUse" x1="2528.9741" y1="1199.6353" x2="2395.0288" y2="1186.6985" gradientTransform="matrix(0.9489 -0.3157 -0.3157 -0.9489 -1220.1211 2999.4724)">
		<stop  offset="0" style="stop-color:#222936"/>
		<stop  offset="1" style="stop-color:#222936;stop-opacity:0"/>
	</linearGradient>
	<path id="path53112" class="st6" d="M802.3,1059l-36.7,16.1c0.8,1.9,1.6,3.9,2.4,5.8l36.2-16.2
		C803.6,1062.7,802.9,1060.9,802.3,1059z"/>
	
		<linearGradient id="rect53114_1_" gradientUnits="userSpaceOnUse" x1="1200.9647" y1="1189.0745" x2="1255.5579" y2="1345.4655" gradientTransform="matrix(3.7795 0 0 -3.7795 -3838.5271 5684.8257)">
		<stop  offset="0" style="stop-color:#252C38"/>
		<stop  offset="1" style="stop-color:#344047"/>
	</linearGradient>
	<path id="rect53114" class="st7" d="M717.1,1010.1h24.2c23,0,41.6,18.6,41.6,41.6v113.5c0,23-18.6,41.6-41.6,41.6h-24.2
		c-23,0-41.6-18.6-41.6-41.6v-113.5C675.5,1028.8,694.1,1010.1,717.1,1010.1z"/>
	
		<linearGradient id="path53116_1_" gradientUnits="userSpaceOnUse" x1="1207.4636" y1="1184.7628" x2="1329.3345" y2="1184.4468" gradientTransform="matrix(3.7795 0 0 -3.7795 -3838.5271 5684.8257)">
		<stop  offset="0" style="stop-color:#FBFBFB"/>
		<stop  offset="1" style="stop-color:#D5D8D9"/>
	</linearGradient>
	<path id="path53116" class="st8" d="M826.8,1136l-92.8,53.7c-9,5.9-11.7,15-4.1,19.9l119.4,69.1l1.6-142.8L826.8,1136z"/>
	<path id="path53118" class="st9" d="M841.7,1145.4l-87.9,50.6c-5.3,2.7-4,11.4-0.4,13.8l78.1,45.6c4.5,2.6,8,2,10.3,0.4l12-7.6
		l3-100.5L841.7,1145.4z"/>
	
		<linearGradient id="path53120_1_" gradientUnits="userSpaceOnUse" x1="1240.7526" y1="1197.7749" x2="1189.9976" y2="1130.7218" gradientTransform="matrix(3.7795 0 0 -3.7795 -3838.5271 5684.8257)">
		<stop  offset="0" style="stop-color:#262E3A"/>
		<stop  offset="1" style="stop-color:#354249"/>
	</linearGradient>
	<path id="path53120" class="st10" d="M842.1,1143.3l-87.9,50.6c-5.3,2.7-4,11.4-0.4,13.8l78.1,45.6c4.5,2.6,8,2,10.3,0.4l12-7.6
		l3-100.5L842.1,1143.3z"/>
	
		<linearGradient id="path53122_1_" gradientUnits="userSpaceOnUse" x1="1223.1628" y1="1216.5929" x2="1297.2938" y2="1172.2821" gradientTransform="matrix(3.7795 0 0 -3.7795 -3838.5271 5684.8257)">
		<stop  offset="0" style="stop-color:#FDD1A0"/>
		<stop  offset="1" style="stop-color:#FDEFDD"/>
	</linearGradient>
	<path id="path53122" class="st11" d="M797.1,1067.8l-14.1,6.3v19l2.3,6.2c3.7,10.6,8.9,19.9,22.1,27.4l53.2,27.9l6.3-29.7
		l-43.7-20.1C806,1095.1,800.6,1081.7,797.1,1067.8L797.1,1067.8z"/>
	<path id="path53124" class="st4" d="M864.1,1119.8c-10.6,5.6-15,10-14.9,23.2l-1.2,133.4c-0.5,7.6,6.1,6.7,10,4.4l116.6-66.7
		c4.1-2.8,5.3-7.6,5.4-13l1.6-130.9c0.1-10.6-8-13.9-14.4-10L864.1,1119.8z"/>
	
		<linearGradient id="path53126_1_" gradientUnits="userSpaceOnUse" x1="1250.1598" y1="1207.0048" x2="1314.2065" y2="1103.0898" gradientTransform="matrix(3.7795 0 0 -3.7795 -3838.5271 5684.8257)">
		<stop  offset="0" style="stop-color:#FDFDFD"/>
		<stop  offset="1" style="stop-color:#D0D3D4"/>
	</linearGradient>
	<path id="path53126" class="st12" d="M868,1122.4c-10.6,5.6-15,10-14.9,23.2l-1.2,133.4c-0.5,7.6,6.1,6.7,10,4.4l116.6-66.7
		c4.1-2.8,5.3-7.6,5.4-13l1.6-130.9c0.1-10.6-8-13.9-14.4-10L868,1122.4z"/>
	<path id="path53128" class="st13" d="M795.6,1187.9c1.8-1.2,3.1-2.9,3.3-5.3c0.3-2.7-1.7-3.2-3.2-2.7l-7.6,2.9L795.6,1187.9z"/>
	
		<linearGradient id="path53130_1_" gradientUnits="userSpaceOnUse" x1="1201.8611" y1="1206.9117" x2="1301.627" y2="1118.2902" gradientTransform="matrix(3.7795 0 0 -3.7795 -3838.5271 5684.8257)">
		<stop  offset="0" style="stop-color:#FDD1A0"/>
		<stop  offset="1" style="stop-color:#FDEFDD"/>
	</linearGradient>
	<path id="path53130" class="st14" d="M709.1,1088.3l3.3,37c0.8,9,4.6,15.7,16.1,22.3l59.2,33.5c5.8,3.3,13.9,9.2,18.5,15.1
		c2.6,4,2.8,5.9-5.8,0.1l8.7,8.6c5.3,5.5,0.5,9.4-3.7,5.4c-2.7-2.5-5.5-4.7-8.4-6.2c3.9,3.7,8,7.4,9.2,12.6c0.9,5-1.3,6.6-5.2,2.5
		c-3.4-3.8-7-7.1-10.6-10.1l-0.9,0.1c2.3,4.5,4.8,9,3.6,14.3c-1,3.5-5.1,2.6-6,0.1c-2.1-5.4-5.3-12-8.8-13.5
		c-2.1-1.1-5.1-1.5-10.5-4.9l-56-36c-13.4-9.4-22.3-20.9-23.2-33.3l-1.6-45.8L709.1,1088.3z"/>
	
		<linearGradient id="ellipse53132_1_" gradientUnits="userSpaceOnUse" x1="322.5115" y1="988.8393" x2="363.7991" y2="988.8393" gradientTransform="matrix(-3.7795 0 0 3.7795 1978.3984 -2710.0388)">
		<stop  offset="0" style="stop-color:#252D38"/>
		<stop  offset="1" style="stop-color:#2C3A40"/>
	</linearGradient>
	<ellipse id="ellipse53132" class="st15" cx="738.8" cy="1027.3" rx="20.3" ry="15.3"/>
	
		<linearGradient id="rect53134_1_" gradientUnits="userSpaceOnUse" x1="1207.6927" y1="1235.3206" x2="1238.0974" y2="1235.3206" gradientTransform="matrix(3.7795 0 0 -3.7795 -3838.5271 5684.8257)">
		<stop  offset="0" style="stop-color:#FDD1A0"/>
		<stop  offset="1" style="stop-color:#FDEFDD"/>
	</linearGradient>
	<path id="rect53134" class="st16" d="M740.7,994.9h1c8,0,14.4,6.4,14.4,14.4v13.3c0,8-6.4,14.4-14.4,14.4h-1
		c-8,0-14.4-6.4-14.4-14.4v-13.3C726.3,1001.3,732.7,994.9,740.7,994.9z"/>
	
		<linearGradient id="path53136_1_" gradientUnits="userSpaceOnUse" x1="1199.3737" y1="1230.7886" x2="1204.2716" y2="1176.9003" gradientTransform="matrix(3.7795 0 0 -3.7795 -3838.5271 5684.8257)">
		<stop  offset="0" style="stop-color:#252D38"/>
		<stop  offset="1" style="stop-color:#2C3A40"/>
	</linearGradient>
	<path id="path53136" class="st17" d="M679.5,1091.4l39.5-4c0.2-18.6-2.5-34.9-9.1-48.2c-8-14.9-28.7-10.5-30.8,6.5
		C677.7,1061.7,678.4,1076.6,679.5,1091.4L679.5,1091.4z"/>
	
		<linearGradient id="path53138_1_" gradientUnits="userSpaceOnUse" x1="2415.9958" y1="1513.2882" x2="2282.0505" y2="1500.3514" gradientTransform="matrix(1 0 0 -1 -1699.5951 2597.9639)">
		<stop  offset="0" style="stop-color:#222936"/>
		<stop  offset="1" style="stop-color:#222936;stop-opacity:0"/>
	</linearGradient>
	<path id="path53138" class="st18" d="M718.9,1081.4l-39.9,3.7c0.1,2.1,0.3,4.2,0.4,6.3l39.5-4C719,1085.4,719,1083.4,718.9,1081.4
		L718.9,1081.4z"/>
	
		<linearGradient id="path53140_1_" gradientUnits="userSpaceOnUse" x1="2445.4617" y1="1691.3823" x2="2423.1333" y2="1343.6956" gradientTransform="matrix(1 0 0 -1 -1699.5951 2597.9639)">
		<stop  offset="0" style="stop-color:#FDF0DF"/>
		<stop  offset="1" style="stop-color:#FDE2C1"/>
	</linearGradient>
	<path id="path53140" class="st19" d="M671.1,895.8v39.1c0,41.1,33.1,74.1,74.1,74.1c41.1,0,74.1-33.1,74.1-74.1v-39.1H671.1z"/>
	<ellipse id="ellipse53142" class="st20" cx="745.6" cy="891.9" rx="78.1" ry="21.3"/>
	
		<linearGradient id="path53144_1_" gradientUnits="userSpaceOnUse" x1="1203.1604" y1="1290.7007" x2="1196.4401" y2="1305.8842" gradientTransform="matrix(3.7795 0 0 -3.7795 -3747.6018 5765.1343)">
		<stop  offset="0" style="stop-color:#2B343E"/>
		<stop  offset="1" style="stop-color:#333F47"/>
	</linearGradient>
	<path id="path53144" class="st21" d="M796.1,863.3l-13.2,7.5v15.4l13.2,7.7l13.2-7.7v-15.4L796.1,863.3z"/>
	
		<linearGradient id="path53146_1_" gradientUnits="userSpaceOnUse" x1="1320.7914" y1="1356.1354" x2="1314.071" y2="1371.3188" gradientTransform="matrix(2.5277 0 0 -2.5277 -2586.4529 4221.687)">
		<stop  offset="0" style="stop-color:#2B343E"/>
		<stop  offset="1" style="stop-color:#333F47"/>
	</linearGradient>
	<path id="path53146" class="st22" d="M745.5,781v10.3l8.8,5.2v-10.2L745.5,781z"/>
	
		<linearGradient id="path53148_1_" gradientUnits="userSpaceOnUse" x1="1324.5479" y1="1359.7994" x2="1314.9313" y2="1345.8446" gradientTransform="matrix(2.5277 0 0 -2.5277 -2586.4529 4221.687)">
		<stop  offset="0" style="stop-color:#2B343E"/>
		<stop  offset="1" style="stop-color:#333F47"/>
	</linearGradient>
	<path id="path53148" class="st23" d="M763.1,781v10.3l-8.8,5.2v-10.2L763.1,781z"/>
	
		<linearGradient id="path53150_1_" gradientUnits="userSpaceOnUse" x1="1321.6703" y1="1362.4807" x2="1321.5323" y2="1352.5631" gradientTransform="matrix(2.5277 0 0 -2.5277 -2586.4529 4221.687)">
		<stop  offset="0" style="stop-color:#2B343E"/>
		<stop  offset="1" style="stop-color:#333F47"/>
	</linearGradient>
	<path id="path53150" class="st24" d="M745.5,781l8.8,5.2l8.8-5.2l-8.8-5L745.5,781z"/>
	<g id="g53158" transform="matrix(1.4809368,0,0,1.4809368,-1338.7356,1380.3419)" class="st25">
		
			<linearGradient id="path53152_1_" gradientUnits="userSpaceOnUse" x1="1662.6237" y1="-90.4489" x2="1651.7377" y2="-74.6546" gradientTransform="matrix(5.5972 0 0 -5.5972 -7899.3315 -884.7671)">
			<stop  offset="0" style="stop-color:#B9A44C"/>
			<stop  offset="1" style="stop-color:#F6CB3B;stop-opacity:0.698"/>
		</linearGradient>
		<path id="path53152" class="st26" d="M1394.9-397.8v15.4l13.2,7.7V-390L1394.9-397.8z"/>
		
			<linearGradient id="path53154_1_" gradientUnits="userSpaceOnUse" x1="1662.9987" y1="-90.7639" x2="1673.7578" y2="-73.0285" gradientTransform="matrix(5.5972 0 0 -5.5972 -7899.3315 -884.7671)">
			<stop  offset="0" style="stop-color:#A68E2B"/>
			<stop  offset="1" style="stop-color:#F6D752;stop-opacity:0.451"/>
		</linearGradient>
		<path id="path53154" class="st27" d="M1421.2-397.8v15.4l-13.2,7.7V-390L1421.2-397.8z"/>
		
			<linearGradient id="path53156_1_" gradientUnits="userSpaceOnUse" x1="1660.4396" y1="-87.0245" x2="1687.4213" y2="-87.0245" gradientTransform="matrix(5.5972 0 0 -5.5972 -7899.3315 -884.7671)">
			<stop  offset="0" style="stop-color:#F6BC00;stop-opacity:0.698"/>
			<stop  offset="1" style="stop-color:#F6D752;stop-opacity:0.451"/>
		</linearGradient>
		<path id="path53156" class="st28" d="M1394.9-397.8l13.2,7.8l13.2-7.8l-13.2-7.5L1394.9-397.8z"/>
	</g>
	<g id="g53166" transform="translate(-1032.1276,1287.7021)">
		
			<linearGradient id="path53160_1_" gradientUnits="userSpaceOnUse" x1="2233.4492" y1="2.1846" x2="2226.7288" y2="17.3682" gradientTransform="matrix(3.7795 0 0 -3.7795 -6707.3545 -469.7826)">
			<stop  offset="0" style="stop-color:#2B343E"/>
			<stop  offset="1" style="stop-color:#333F47"/>
		</linearGradient>
		<path id="path53160" class="st29" d="M1724.1-497.1v15.4l13.2,7.7v-15.3L1724.1-497.1z"/>
		
			<linearGradient id="path53162_1_" gradientUnits="userSpaceOnUse" x1="2237.2058" y1="5.8487" x2="2227.5891" y2="-8.1061" gradientTransform="matrix(3.7795 0 0 -3.7795 -6707.3545 -469.7826)">
			<stop  offset="0" style="stop-color:#2B343E"/>
			<stop  offset="1" style="stop-color:#333F47"/>
		</linearGradient>
		<path id="path53162" class="st30" d="M1750.4-497.1v15.4l-13.2,7.7v-15.3L1750.4-497.1z"/>
		
			<linearGradient id="path53164_1_" gradientUnits="userSpaceOnUse" x1="2234.3281" y1="8.53" x2="2234.1902" y2="-1.3876" gradientTransform="matrix(3.7795 0 0 -3.7795 -6707.3545 -469.7826)">
			<stop  offset="0" style="stop-color:#2B343E"/>
			<stop  offset="1" style="stop-color:#333F47"/>
		</linearGradient>
		<path id="path53164" class="st31" d="M1724.1-497.1l13.2,7.8l13.2-7.8l-13.2-7.5L1724.1-497.1z"/>
	</g>
	
		<linearGradient id="path53168_1_" gradientUnits="userSpaceOnUse" x1="1203.1604" y1="1290.7007" x2="1196.4401" y2="1305.8842" gradientTransform="matrix(3.7795 0 0 -3.7795 -3789.3784 5705.6294)">
		<stop  offset="0" style="stop-color:#2B343E"/>
		<stop  offset="1" style="stop-color:#333F47"/>
	</linearGradient>
	<path id="path53168" class="st32" d="M754.3,803.8l-13.2,7.5v15.4l13.2,7.7l13.2-7.7v-15.4L754.3,803.8z"/>
	<g id="g53176" transform="translate(-982.9787,1308.5058)">
		
			<linearGradient id="path53170_1_" gradientUnits="userSpaceOnUse" x1="2184.3003" y1="-18.6191" x2="2177.5801" y2="-3.4356" gradientTransform="matrix(3.7795 0 0 -3.7795 -6521.5947 -548.4108)">
			<stop  offset="0" style="stop-color:#2B343E"/>
			<stop  offset="1" style="stop-color:#333F47"/>
		</linearGradient>
		<path id="path53170" class="st33" d="M1724.1-497.1v15.4l13.2,7.7v-15.3L1724.1-497.1z"/>
		
			<linearGradient id="path53172_1_" gradientUnits="userSpaceOnUse" x1="2188.0569" y1="-14.955" x2="2178.4402" y2="-28.9098" gradientTransform="matrix(3.7795 0 0 -3.7795 -6521.5947 -548.4108)">
			<stop  offset="0" style="stop-color:#2B343E"/>
			<stop  offset="1" style="stop-color:#333F47"/>
		</linearGradient>
		<path id="path53172" class="st34" d="M1750.4-497.1v15.4l-13.2,7.7v-15.3L1750.4-497.1z"/>
		
			<linearGradient id="path53174_1_" gradientUnits="userSpaceOnUse" x1="2185.1792" y1="-12.2737" x2="2185.0413" y2="-22.1913" gradientTransform="matrix(3.7795 0 0 -3.7795 -6521.5947 -548.4108)">
			<stop  offset="0" style="stop-color:#2B343E"/>
			<stop  offset="1" style="stop-color:#333F47"/>
		</linearGradient>
		<path id="path53174" class="st35" d="M1724.1-497.1l13.2,7.8l13.2-7.8l-13.2-7.5L1724.1-497.1z"/>
	</g>
	<g id="g53184" transform="matrix(1.4809368,0,0,1.4809368,-1330.9147,1396.7456)" class="st25">
		
			<linearGradient id="path53178_1_" gradientUnits="userSpaceOnUse" x1="1657.3427" y1="-101.5254" x2="1646.4567" y2="-85.7311" gradientTransform="matrix(5.5972 0 0 -5.5972 -7869.7725 -946.7653)">
			<stop  offset="0" style="stop-color:#B9A44C"/>
			<stop  offset="1" style="stop-color:#F6CB3B;stop-opacity:0.698"/>
		</linearGradient>
		<path id="path53178" class="st36" d="M1394.9-397.8v15.4l13.2,7.7V-390L1394.9-397.8z"/>
		
			<linearGradient id="path53180_1_" gradientUnits="userSpaceOnUse" x1="1657.7177" y1="-101.8404" x2="1668.4767" y2="-84.1051" gradientTransform="matrix(5.5972 0 0 -5.5972 -7869.7725 -946.7653)">
			<stop  offset="0" style="stop-color:#A68E2B"/>
			<stop  offset="1" style="stop-color:#F6D752;stop-opacity:0.451"/>
		</linearGradient>
		<path id="path53180" class="st37" d="M1421.2-397.8v15.4l-13.2,7.7V-390L1421.2-397.8z"/>
		
			<linearGradient id="path53182_1_" gradientUnits="userSpaceOnUse" x1="1655.1584" y1="-98.101" x2="1682.1403" y2="-98.101" gradientTransform="matrix(5.5972 0 0 -5.5972 -7869.7725 -946.7653)">
			<stop  offset="0" style="stop-color:#F6BC00;stop-opacity:0.698"/>
			<stop  offset="1" style="stop-color:#F6D752;stop-opacity:0.451"/>
		</linearGradient>
		<path id="path53182" class="st38" d="M1394.9-397.8l13.2,7.8l13.2-7.8l-13.2-7.5L1394.9-397.8z"/>
	</g>
	
		<linearGradient id="ellipse53186_1_" gradientUnits="userSpaceOnUse" x1="1193.1322" y1="1268.3118" x2="1342.3748" y2="1268.3118" gradientTransform="matrix(3.7795 0 0 -3.7795 -3838.5271 5684.8257)">
		<stop  offset="0" style="stop-color:#2D3B41"/>
		<stop  offset="1" style="stop-color:#242937"/>
	</linearGradient>
	<ellipse id="ellipse53186" class="st39" cx="745.6" cy="891.2" rx="74.3" ry="16.5"/>
	<g id="g53194" transform="matrix(1.7221276,0,0,1.7221276,-1505.3665,1514.6637)">
		
			<linearGradient id="path53188_1_" gradientUnits="userSpaceOnUse" x1="1512.972" y1="-163.095" x2="1506.2517" y2="-147.9114" gradientTransform="matrix(6.5088 0 0 -6.5088 -8538.7686 -1411.3247)">
			<stop  offset="0" style="stop-color:#2B343E"/>
			<stop  offset="1" style="stop-color:#333F47"/>
		</linearGradient>
		<path id="path53188" class="st40" d="M1299-368.9v15.4l1.6,0.9c2.1,0.1,4.3,0.1,6.5,0.1c1.7,0,3.4,0,5.1-0.1v-8.5L1299-368.9z"/>
		
			<linearGradient id="path53190_1_" gradientUnits="userSpaceOnUse" x1="1515.1534" y1="-160.9673" x2="1505.5367" y2="-174.9221" gradientTransform="matrix(6.5088 0 0 -6.5088 -8538.7686 -1411.3247)">
			<stop  offset="0" style="stop-color:#2B343E"/>
			<stop  offset="1" style="stop-color:#333F47"/>
		</linearGradient>
		<path id="path53190" class="st41" d="M1325.3-368.9l-13.2,7.8v8.5c4.4-0.1,8.8-0.4,12.9-0.8l0.3-0.2V-368.9z"/>
		
			<linearGradient id="path53192_1_" gradientUnits="userSpaceOnUse" x1="1513.4824" y1="-159.4104" x2="1513.3445" y2="-169.3279" gradientTransform="matrix(6.5088 0 0 -6.5088 -8538.7686 -1411.3248)">
			<stop  offset="0" style="stop-color:#2B343E"/>
			<stop  offset="1" style="stop-color:#333F47"/>
		</linearGradient>
		<path id="path53192" class="st42" d="M1299-368.9l13.2,7.8l13.2-7.8l-13.2-7.5L1299-368.9z"/>
	</g>
	<g id="g53202" transform="matrix(1.7221276,0,0,1.7221276,-1505.2787,1471.2076)">
		
			<linearGradient id="path53196_1_" gradientUnits="userSpaceOnUse" x1="1512.9211" y1="-137.861" x2="1506.2008" y2="-122.6775" gradientTransform="matrix(6.5088 0 0 -6.5088 -8538.4375 -1247.0814)">
			<stop  offset="0" style="stop-color:#2B343E"/>
			<stop  offset="1" style="stop-color:#333F47"/>
		</linearGradient>
		<path id="path53196" class="st43" d="M1299-368.9v15.4l13.2,7.7v-15.3L1299-368.9z"/>
		
			<linearGradient id="path53198_1_" gradientUnits="userSpaceOnUse" x1="1515.1024" y1="-135.7334" x2="1505.4858" y2="-149.6882" gradientTransform="matrix(6.5088 0 0 -6.5088 -8538.4375 -1247.0814)">
			<stop  offset="0" style="stop-color:#2B343E"/>
			<stop  offset="1" style="stop-color:#333F47"/>
		</linearGradient>
		<path id="path53198" class="st44" d="M1325.3-368.9v15.4l-13.2,7.7v-15.3L1325.3-368.9z"/>
		
			<linearGradient id="path53200_1_" gradientUnits="userSpaceOnUse" x1="1513.4315" y1="-134.1764" x2="1513.2936" y2="-144.094" gradientTransform="matrix(6.5088 0 0 -6.5088 -8538.4375 -1247.0814)">
			<stop  offset="0" style="stop-color:#2B343E"/>
			<stop  offset="1" style="stop-color:#333F47"/>
		</linearGradient>
		<path id="path53200" class="st45" d="M1299-368.9l13.2,7.8l13.2-7.8l-13.2-7.5L1299-368.9z"/>
	</g>
	<g id="g53210" transform="matrix(1.5473226,0,0,1.5473226,-1427.9666,1485.1968)">
		
			<linearGradient id="path53204_1_" gradientUnits="userSpaceOnUse" x1="1644.2339" y1="-156.7467" x2="1637.5135" y2="-141.5632" gradientTransform="matrix(5.8481 0 0 -5.8481 -8239.5381 -1286.8539)">
			<stop  offset="0" style="stop-color:#2B343E"/>
			<stop  offset="1" style="stop-color:#333F47"/>
		</linearGradient>
		<path id="path53204" class="st46" d="M1365.5-388.9v11.2c3.5,1.1,8,2.1,13.2,2.8v-6.2L1365.5-388.9z"/>
		
			<linearGradient id="path53206_1_" gradientUnits="userSpaceOnUse" x1="1646.5276" y1="-154.4354" x2="1636.911" y2="-168.3902" gradientTransform="matrix(5.8481 0 0 -5.8481 -8239.5381 -1286.8539)">
			<stop  offset="0" style="stop-color:#2B343E"/>
			<stop  offset="1" style="stop-color:#333F47"/>
		</linearGradient>
		<path id="path53206" class="st47" d="M1391.8-388.9l-13.2,7.8v6.2c4.1,0.6,8.5,1,13.2,1.3V-388.9z"/>
		
			<linearGradient id="path53208_1_" gradientUnits="userSpaceOnUse" x1="1644.6702" y1="-152.7041" x2="1644.5322" y2="-162.6217" gradientTransform="matrix(5.8481 0 0 -5.8481 -8239.5391 -1286.8539)">
			<stop  offset="0" style="stop-color:#2B343E"/>
			<stop  offset="1" style="stop-color:#333F47"/>
		</linearGradient>
		<path id="path53208" class="st48" d="M1365.5-388.9l13.2,7.8l13.2-7.8l-13.2-7.5L1365.5-388.9z"/>
	</g>
	<g id="g53218" transform="matrix(1.3413444,0,0,1.3413444,-1278.9507,1418.3482)">
		
			<linearGradient id="path53212_1_" gradientUnits="userSpaceOnUse" x1="1803.3273" y1="-121.1497" x2="1796.6069" y2="-105.9662" gradientTransform="matrix(5.0696 0 0 -5.0696 -7666.2041 -1014.3803)">
			<stop  offset="0" style="stop-color:#2B343E"/>
			<stop  offset="1" style="stop-color:#333F47"/>
		</linearGradient>
		<path id="path53212" class="st49" d="M1466.1-419.3v15.4l13.2,7.7v-15.3L1466.1-419.3z"/>
		
			<linearGradient id="path53214_1_" gradientUnits="userSpaceOnUse" x1="1806.1279" y1="-118.4181" x2="1796.5112" y2="-132.3729" gradientTransform="matrix(5.0696 0 0 -5.0696 -7666.2041 -1014.3803)">
			<stop  offset="0" style="stop-color:#2B343E"/>
			<stop  offset="1" style="stop-color:#333F47"/>
		</linearGradient>
		<path id="path53214" class="st50" d="M1492.4-419.3v15.4l-13.2,7.7v-15.3L1492.4-419.3z"/>
		
			<linearGradient id="path53216_1_" gradientUnits="userSpaceOnUse" x1="1803.9825" y1="-116.4191" x2="1803.8446" y2="-126.3367" gradientTransform="matrix(5.0696 0 0 -5.0696 -7666.2041 -1014.3803)">
			<stop  offset="0" style="stop-color:#2B343E"/>
			<stop  offset="1" style="stop-color:#333F47"/>
		</linearGradient>
		<path id="path53216" class="st51" d="M1466.1-419.3l13.2,7.8l13.2-7.8l-13.2-7.5L1466.1-419.3z"/>
	</g>
	<g id="g53226" transform="matrix(1.9016867,0,0,1.9016867,-1684.333,1521.1569)">
		
			<linearGradient id="path53220_1_" gradientUnits="userSpaceOnUse" x1="1457.5466" y1="-154.9936" x2="1446.6606" y2="-139.1994" gradientTransform="matrix(7.1875 0 0 -7.1875 -9220.7744 -1446.8147)">
			<stop  offset="0" style="stop-color:#B9A44C"/>
			<stop  offset="1" style="stop-color:#F6CB3B;stop-opacity:0.698"/>
		</linearGradient>
		<path id="path53220" class="st52" d="M1243.4-352.1v15.4l13.2,7.7v-15.3L1243.4-352.1z"/>
		
			<linearGradient id="path53222_1_" gradientUnits="userSpaceOnUse" x1="1457.8387" y1="-155.2389" x2="1468.5978" y2="-137.5036" gradientTransform="matrix(7.1875 0 0 -7.1875 -9220.7744 -1446.8147)">
			<stop  offset="0" style="stop-color:#A68E2B"/>
			<stop  offset="1" style="stop-color:#F6D752;stop-opacity:0.451"/>
		</linearGradient>
		<path id="path53222" class="st53" d="M1269.7-352.1v15.4l-13.2,7.7v-15.3L1269.7-352.1z"/>
		
			<linearGradient id="path53224_1_" gradientUnits="userSpaceOnUse" x1="1455.8458" y1="-152.3269" x2="1482.8275" y2="-152.3269" gradientTransform="matrix(7.1875 0 0 -7.1875 -9220.7744 -1446.8147)">
			<stop  offset="0" style="stop-color:#F6BC00;stop-opacity:0.698"/>
			<stop  offset="1" style="stop-color:#F6D752;stop-opacity:0.451"/>
		</linearGradient>
		<path id="path53224" class="st54" d="M1243.4-352.1l13.2,7.8l13.2-7.8l-13.2-7.5L1243.4-352.1z"/>
	</g>
	<g id="g53234" transform="matrix(0.93349664,0,0,0.93349664,-934.82767,1370.0045)">
		
			<linearGradient id="path53228_1_" gradientUnits="userSpaceOnUse" x1="2307.3042" y1="-75.6715" x2="2296.4182" y2="-59.8772" gradientTransform="matrix(3.5282 0 0 -3.5282 -6332.3335 -766.6202)">
			<stop  offset="0" style="stop-color:#B9A44C"/>
			<stop  offset="1" style="stop-color:#F6CB3B;stop-opacity:0.698"/>
		</linearGradient>
		<path id="path53228" class="st55" d="M1796.3-518.9v15.4l13.2,7.7v-15.3L1796.3-518.9z"/>
		
			<linearGradient id="path53230_1_" gradientUnits="userSpaceOnUse" x1="2307.8992" y1="-76.1712" x2="2318.6582" y2="-58.4358" gradientTransform="matrix(3.5282 0 0 -3.5282 -6332.3335 -766.6202)">
			<stop  offset="0" style="stop-color:#A68E2B"/>
			<stop  offset="1" style="stop-color:#F6D752;stop-opacity:0.451"/>
		</linearGradient>
		<path id="path53230" class="st56" d="M1822.7-518.9v15.4l-13.2,7.7v-15.3L1822.7-518.9z"/>
		
			<linearGradient id="path53232_1_" gradientUnits="userSpaceOnUse" x1="2303.8391" y1="-70.2388" x2="2330.8208" y2="-70.2388" gradientTransform="matrix(3.5282 0 0 -3.5282 -6332.3335 -766.6202)">
			<stop  offset="0" style="stop-color:#F6BC00;stop-opacity:0.698"/>
			<stop  offset="1" style="stop-color:#F6D752;stop-opacity:0.451"/>
		</linearGradient>
		<path id="path53232" class="st57" d="M1796.3-518.9l13.2,7.8l13.2-7.8l-13.2-7.5L1796.3-518.9z"/>
	</g>
	
		<linearGradient id="path53236_1_" gradientUnits="userSpaceOnUse" x1="1203.1604" y1="1290.7007" x2="1196.4401" y2="1305.8842" gradientTransform="matrix(3.7795 0 0 -3.7795 -3747.6018 5703.6953)">
		<stop  offset="0" style="stop-color:#2B343E"/>
		<stop  offset="1" style="stop-color:#333F47"/>
	</linearGradient>
	<path id="path53236" class="st58" d="M796.1,801.9l-13.2,7.5v15.4l13.2,7.7l13.2-7.7v-15.4L796.1,801.9z"/>
	<g id="g53244" transform="translate(-941.20211,1306.5718)">
		
			<linearGradient id="path53238_1_" gradientUnits="userSpaceOnUse" x1="2142.5237" y1="-16.685" x2="2135.8035" y2="-1.5015" gradientTransform="matrix(3.7795 0 0 -3.7795 -6363.6987 -541.1009)">
			<stop  offset="0" style="stop-color:#2B343E"/>
			<stop  offset="1" style="stop-color:#333F47"/>
		</linearGradient>
		<path id="path53238" class="st59" d="M1724.1-497.1v15.4l13.2,7.7v-15.3L1724.1-497.1z"/>
		
			<linearGradient id="path53240_1_" gradientUnits="userSpaceOnUse" x1="2146.2803" y1="-13.0209" x2="2136.6636" y2="-26.9757" gradientTransform="matrix(3.7795 0 0 -3.7795 -6363.6987 -541.1009)">
			<stop  offset="0" style="stop-color:#2B343E"/>
			<stop  offset="1" style="stop-color:#333F47"/>
		</linearGradient>
		<path id="path53240" class="st60" d="M1750.4-497.1v15.4l-13.2,7.7v-15.3L1750.4-497.1z"/>
		
			<linearGradient id="path53242_1_" gradientUnits="userSpaceOnUse" x1="2143.4026" y1="-10.3396" x2="2143.2646" y2="-20.2572" gradientTransform="matrix(3.7795 0 0 -3.7795 -6363.6987 -541.1009)">
			<stop  offset="0" style="stop-color:#2B343E"/>
			<stop  offset="1" style="stop-color:#333F47"/>
		</linearGradient>
		<path id="path53242" class="st61" d="M1724.1-497.1l13.2,7.8l13.2-7.8l-13.2-7.5L1724.1-497.1z"/>
	</g>
	<g id="g53252" transform="matrix(0.76685181,0,0,0.76685181,-772.68754,1245.843)">
		
			<linearGradient id="path53246_1_" gradientUnits="userSpaceOnUse" x1="2670.5017" y1="110.4038" x2="2659.6157" y2="126.198" gradientTransform="matrix(2.8983 0 0 -2.8983 -5695.7612 -250.8621)">
			<stop  offset="0" style="stop-color:#B9A44C"/>
			<stop  offset="1" style="stop-color:#F6CB3B;stop-opacity:0.698"/>
		</linearGradient>
		<path id="path53246" class="st62" d="M2032.4-590.1v15.4l13.2,7.7v-15.3L2032.4-590.1z"/>
		
			<linearGradient id="path53248_1_" gradientUnits="userSpaceOnUse" x1="2671.2258" y1="109.7955" x2="2681.9851" y2="127.5308" gradientTransform="matrix(2.8983 0 0 -2.8983 -5695.7612 -250.8621)">
			<stop  offset="0" style="stop-color:#A68E2B"/>
			<stop  offset="1" style="stop-color:#F6D752;stop-opacity:0.451"/>
		</linearGradient>
		<path id="path53248" class="st63" d="M2058.7-590.1v15.4l-13.2,7.7v-15.3L2058.7-590.1z"/>
		
			<linearGradient id="path53250_1_" gradientUnits="userSpaceOnUse" x1="2666.2837" y1="117.0169" x2="2693.2654" y2="117.0169" gradientTransform="matrix(2.8983 0 0 -2.8983 -5695.7612 -250.8621)">
			<stop  offset="0" style="stop-color:#F6BC00;stop-opacity:0.698"/>
			<stop  offset="1" style="stop-color:#F6D752;stop-opacity:0.451"/>
		</linearGradient>
		<path id="path53250" class="st64" d="M2032.4-590.1l13.2,7.8l13.2-7.8l-13.2-7.5L2032.4-590.1z"/>
	</g>
	
		<linearGradient id="path53254_1_" gradientUnits="userSpaceOnUse" x1="1201.3217" y1="1289.8868" x2="1194.6013" y2="1305.0703" gradientTransform="matrix(3.7795 0 0 -3.7795 -3747.6018 5765.1343)">
		<stop  offset="0" style="stop-color:#2B343E"/>
		<stop  offset="1" style="stop-color:#333F47"/>
	</linearGradient>
	<path id="path53254" class="st65" d="M782.9,870.9v15.4l13.2,7.7v-15.3L782.9,870.9z"/>
	
		<linearGradient id="path53256_1_" gradientUnits="userSpaceOnUse" x1="1205.0781" y1="1293.5509" x2="1195.4615" y2="1279.5961" gradientTransform="matrix(3.7795 0 0 -3.7795 -3747.6018 5765.1343)">
		<stop  offset="0" style="stop-color:#2B343E"/>
		<stop  offset="1" style="stop-color:#333F47"/>
	</linearGradient>
	<path id="path53256" class="st66" d="M809.2,870.9v15.4l-13.2,7.7v-15.3L809.2,870.9z"/>
	
		<linearGradient id="path53258_1_" gradientUnits="userSpaceOnUse" x1="1202.2006" y1="1296.2322" x2="1202.0626" y2="1286.3146" gradientTransform="matrix(3.7795 0 0 -3.7795 -3747.6018 5765.1343)">
		<stop  offset="0" style="stop-color:#2B343E"/>
		<stop  offset="1" style="stop-color:#333F47"/>
	</linearGradient>
	<path id="path53258" class="st67" d="M782.9,870.9l13.2,7.8l13.2-7.8l-13.2-7.5L782.9,870.9z"/>
	<g id="g53266" transform="translate(-941.07799,1343.5595)">
		
			<linearGradient id="path53260_1_" gradientUnits="userSpaceOnUse" x1="2142.3997" y1="-53.6727" x2="2135.6792" y2="-38.4891" gradientTransform="matrix(3.7795 0 0 -3.7795 -6363.23 -680.8968)">
			<stop  offset="0" style="stop-color:#2B343E"/>
			<stop  offset="1" style="stop-color:#333F47"/>
		</linearGradient>
		<path id="path53260" class="st68" d="M1724.1-497.1v15.4l13.2,7.7v-15.3L1724.1-497.1z"/>
		
			<linearGradient id="path53262_1_" gradientUnits="userSpaceOnUse" x1="2146.1562" y1="-50.0086" x2="2136.5396" y2="-63.9634" gradientTransform="matrix(3.7795 0 0 -3.7795 -6363.23 -680.8968)">
			<stop  offset="0" style="stop-color:#2B343E"/>
			<stop  offset="1" style="stop-color:#333F47"/>
		</linearGradient>
		<path id="path53262" class="st69" d="M1750.4-497.1v15.4l-13.2,7.7v-15.3L1750.4-497.1z"/>
		
			<linearGradient id="path53264_1_" gradientUnits="userSpaceOnUse" x1="2143.2786" y1="-47.3273" x2="2143.1406" y2="-57.2449" gradientTransform="matrix(3.7795 0 0 -3.7795 -6363.23 -680.8968)">
			<stop  offset="0" style="stop-color:#2B343E"/>
			<stop  offset="1" style="stop-color:#333F47"/>
		</linearGradient>
		<path id="path53264" class="st70" d="M1724.1-497.1l13.2,7.8l13.2-7.8l-13.2-7.5L1724.1-497.1z"/>
	</g>
	<g id="g53274" transform="matrix(1.2452654,0,0,1.2452654,-1118.5164,1388.5595)" class="st25">
		
			<linearGradient id="path53268_1_" gradientUnits="userSpaceOnUse" x1="1825.1941" y1="-100.4376" x2="1814.3081" y2="-84.6434" gradientTransform="matrix(4.7065 0 0 -4.7065 -7053.9673 -890.3066)">
			<stop  offset="0" style="stop-color:#B9A44C"/>
			<stop  offset="1" style="stop-color:#F6CB3B;stop-opacity:0.698"/>
		</linearGradient>
		<path id="path53268" class="st71" d="M1524.4-436.9v15.4l13.2,7.7v-15.3L1524.4-436.9z"/>
		
			<linearGradient id="path53270_1_" gradientUnits="userSpaceOnUse" x1="1825.64" y1="-100.8122" x2="1836.3992" y2="-83.0769" gradientTransform="matrix(4.7065 0 0 -4.7065 -7053.9673 -890.3066)">
			<stop  offset="0" style="stop-color:#A68E2B"/>
			<stop  offset="1" style="stop-color:#F6D752;stop-opacity:0.451"/>
		</linearGradient>
		<path id="path53270" class="st72" d="M1550.8-436.9v15.4l-13.2,7.7v-15.3L1550.8-436.9z"/>
		
			<linearGradient id="path53272_1_" gradientUnits="userSpaceOnUse" x1="1822.5966" y1="-96.3651" x2="1849.5784" y2="-96.3651" gradientTransform="matrix(4.7065 0 0 -4.7065 -7053.9673 -890.3066)">
			<stop  offset="0" style="stop-color:#F6BC00;stop-opacity:0.698"/>
			<stop  offset="1" style="stop-color:#F6D752;stop-opacity:0.451"/>
		</linearGradient>
		<path id="path53272" class="st73" d="M1524.4-436.9l13.2,7.8l13.2-7.8l-13.2-7.5L1524.4-436.9z"/>
	</g>
	
		<linearGradient id="path53276_1_" gradientUnits="userSpaceOnUse" x1="1253.5044" y1="1251.8104" x2="1290.5309" y2="1147.3015" gradientTransform="matrix(3.7795 0 0 -3.7795 -3838.5271 5684.8257)">
		<stop  offset="0" style="stop-color:#FCF0BF"/>
		<stop  offset="1" style="stop-color:#F7DA5E"/>
	</linearGradient>
	<path id="path53276" class="st74" d="M848.1,973.2l0.2,103.9c0.1,9,4.9,13.6,13.4,8.8l105.1-60.7c4.8-3.1,9-6.5,8.9-12.9V902.1
		c0.2-7.6-4.7-7.9-9.3-4.8l-113.1,65.4C850.3,964.4,848,968.1,848.1,973.2L848.1,973.2z"/>
	<path id="path53278" class="st75" d="M971.5,895.4c-1.5,0-3.3,0.7-5,1.8l-113.1,65.4c-3.1,1.7-5.4,5.4-5.3,10.6l0,7.3l127.7-73.3
		v-5.2C975.9,897.4,974,895.5,971.5,895.4L971.5,895.4z"/>
	<path id="path53280" class="st76" d="M876.6,951.9l6.5-3.7c0.9-0.5,1.7-0.1,1.7,1v5.1c0,1.1-0.7,2.3-1.7,2.9l-6.5,3.7
		c-0.9,0.5-1.7,0.1-1.7-1v-5.1C874.9,953.8,875.7,952.5,876.6,951.9z"/>
	<path id="path53282" class="st76" d="M864.9,959l6.5-3.7c0.9-0.5,1.7-0.1,1.7,1v5.1c0,1.1-0.7,2.3-1.7,2.9l-6.5,3.7
		c-0.9,0.5-1.7,0.1-1.7-1v-5.1C863.2,960.8,863.9,959.5,864.9,959L864.9,959z"/>
	<path id="path53284" class="st76" d="M853.3,965.6l6.5-3.7c0.9-0.5,1.7-0.1,1.7,1v5.1c0,1.1-0.7,2.3-1.7,2.9l-6.5,3.7
		c-0.9,0.5-1.7,0.1-1.7-1v-5.1C851.7,967.4,852.4,966.1,853.3,965.6L853.3,965.6z"/>
	<g id="g53294" transform="translate(-1131.5424,606.39486)">
		
			<linearGradient id="path53286_1_" gradientUnits="userSpaceOnUse" x1="2569.7197" y1="742.1721" x2="2544.8931" y2="689.2491" gradientTransform="matrix(2.2038 0 0 -2.2038 -3574.1328 1964.2146)">
			<stop  offset="0" style="stop-color:#F6BC00"/>
			<stop  offset="1" style="stop-color:#F6BC00"/>
		</linearGradient>
		<path id="path53286" class="st77" d="M2073.1,335.1c-2.7,1.9-3.6,4-3.7,6.1v18.5c0,2.3,0.8,2.2,5.6,4.4l16.3-12.9
			c1.8-1.4,3.3-3,3.2-6.3l3.2-17.9c-4.8-3.6-5.3-3.1-7.1-2.1L2073.1,335.1z"/>
		<path id="path53288" class="st78" d="M2073.1,335.1c-2.5,1.7-3.5,3.6-3.6,5.6l4.3,2.6c0,0,1.4,0.6,1.6,0.6s2.2-6.4,2.2-6.4
			L2073.1,335.1z"/>
		<path id="path53290" class="st79" d="M2092.5,324.2c-0.7,0-1.2,0.3-2,0.7l4.5,2.3l2.5,0.7l0.1-0.8
			C2094.8,324.9,2093.5,324.2,2092.5,324.2z"/>
		
			<linearGradient id="path53292_1_" gradientUnits="userSpaceOnUse" x1="2562.9795" y1="739.6939" x2="2597.0112" y2="707.8439" gradientTransform="matrix(2.2038 0 0 -2.2038 -3574.1328 1964.2146)">
			<stop  offset="0" style="stop-color:#FBECB0"/>
			<stop  offset="1" style="stop-color:#F7DA5E"/>
		</linearGradient>
		<path id="path53292" class="st80" d="M2077.6,337.4c-2.7,1.9-3.6,4-3.7,6.1V362c0,2.3,1.7,3.1,4.1,1.7l17.8-10.2
			c1.8-1.4,3.3-3,3.2-6.3l-0.2-17.6c0.1-2.8-2-3.4-3.8-2.5L2077.6,337.4z"/>
	</g>
	<g id="g53304" transform="translate(-1129.5565,605.65014)">
		
			<linearGradient id="path53296_1_" gradientUnits="userSpaceOnUse" x1="2567.7339" y1="742.9167" x2="2542.9072" y2="689.9938" gradientTransform="matrix(2.2038 0 0 -2.2038 -3569.7563 2009.7941)">
			<stop  offset="0" style="stop-color:#F6BC00"/>
			<stop  offset="1" style="stop-color:#F6BC00"/>
		</linearGradient>
		<path id="path53296" class="st81" d="M2073.1,379c-2.7,1.9-3.6,4-3.7,6.1v18.5c0,2.3,0.8,2.2,5.6,4.4l16.3-12.9
			c1.8-1.4,3.3-3,3.2-6.3l3.2-17.9c-4.8-3.6-5.3-3.1-7.1-2.1L2073.1,379z"/>
		<path id="path53298" class="st78" d="M2073.1,379c-2.5,1.7-3.5,3.6-3.6,5.6l4.3,2.6c0,0,1.4,0.6,1.6,0.6s2.2-6.4,2.2-6.4
			L2073.1,379z"/>
		<path id="path53300" class="st79" d="M2092.5,368.1c-0.7,0-1.2,0.3-2,0.7l4.5,2.3l2.5,0.7l0.1-0.8
			C2094.8,368.8,2093.5,368.1,2092.5,368.1z"/>
		
			<linearGradient id="path53302_1_" gradientUnits="userSpaceOnUse" x1="2560.9937" y1="740.4386" x2="2595.0254" y2="708.5886" gradientTransform="matrix(2.2038 0 0 -2.2038 -3569.7563 2009.7941)">
			<stop  offset="0" style="stop-color:#FBECB0"/>
			<stop  offset="1" style="stop-color:#F7DA5E"/>
		</linearGradient>
		<path id="path53302" class="st82" d="M2077.6,381.3c-2.7,1.9-3.6,4-3.7,6.1V406c0,2.3,1.7,3.1,4.1,1.7l17.8-10.2
			c1.8-1.4,3.3-3,3.2-6.3l-0.2-17.6c0.1-2.8-2-3.4-3.8-2.5L2077.6,381.3z"/>
	</g>
	<g id="g53312" transform="matrix(1.7221276,0,0,1.7221276,-1505.2787,1471.2076)">
		
			<linearGradient id="path53306_1_" gradientUnits="userSpaceOnUse" x1="1512.9211" y1="-137.861" x2="1506.2008" y2="-122.6775" gradientTransform="matrix(6.5088 0 0 -6.5088 -8538.4375 -1247.0814)">
			<stop  offset="0" style="stop-color:#2B343E"/>
			<stop  offset="1" style="stop-color:#333F47"/>
		</linearGradient>
		<path id="path53306" class="st83" d="M1299-368.9v15.4l13.2,7.7v-15.3L1299-368.9z"/>
		
			<linearGradient id="path53308_1_" gradientUnits="userSpaceOnUse" x1="1515.1024" y1="-135.7334" x2="1505.4858" y2="-149.6882" gradientTransform="matrix(6.5088 0 0 -6.5088 -8538.4375 -1247.0814)">
			<stop  offset="0" style="stop-color:#2B343E"/>
			<stop  offset="1" style="stop-color:#333F47"/>
		</linearGradient>
		<path id="path53308" class="st84" d="M1325.3-368.9v15.4l-13.2,7.7v-15.3L1325.3-368.9z"/>
		
			<linearGradient id="path53310_1_" gradientUnits="userSpaceOnUse" x1="1513.4315" y1="-134.1764" x2="1513.2936" y2="-144.094" gradientTransform="matrix(6.5088 0 0 -6.5088 -8538.4375 -1247.0814)">
			<stop  offset="0" style="stop-color:#2B343E"/>
			<stop  offset="1" style="stop-color:#333F47"/>
		</linearGradient>
		<path id="path53310" class="st85" d="M1299-368.9l13.2,7.8l13.2-7.8l-13.2-7.5L1299-368.9z"/>
	</g>
	<g id="g53324" transform="matrix(1.3812605,0,0,1.3812605,-1669.8212,438.96825)">
		
			<linearGradient id="path53314_1_" gradientUnits="userSpaceOnUse" x1="2077.0271" y1="562.5458" x2="2052.2007" y2="509.623" gradientTransform="matrix(5.2205 0 0 -5.2205 -8975.7891 3319.0376)">
			<stop  offset="0" style="stop-color:#F6BC00"/>
			<stop  offset="1" style="stop-color:#F6BC00"/>
		</linearGradient>
		<path id="path53314" class="st86" d="M1840.3,393.3c-4.7,3.2-6.2,6.8-6.3,10.5v31.7c0,3.9,1.3,3.8,9.6,7.6l27.9-22.1
			c3.2-2.3,5.7-5.2,5.5-10.8l5.4-30.7c-8.2-6.1-9.1-5.3-12.3-3.7L1840.3,393.3z"/>
		<path id="path53316" class="st78" d="M1840.3,393.3c-4.3,3-5.9,6.2-6.3,9.6l7.5,4.4c0,0,2.5,1,2.7,1c0.2,0,3.8-11,3.8-11
			L1840.3,393.3z"/>
		<path id="path53318" class="st79" d="M1873.5,374.6c-1.2,0-2.1,0.5-3.4,1.1l7.7,4l4.3,1.1l0.2-1.4
			C1877.5,375.8,1875.2,374.6,1873.5,374.6L1873.5,374.6z"/>
		
			<linearGradient id="path53320_1_" gradientUnits="userSpaceOnUse" x1="2072.3447" y1="561.2955" x2="2106.2852" y2="523.1049" gradientTransform="matrix(5.2205 0 0 -5.2205 -8975.7891 3319.0376)">
			<stop  offset="0" style="stop-color:#FBECB0"/>
			<stop  offset="1" style="stop-color:#F7DA5E"/>
		</linearGradient>
		<path id="path53320" class="st87" d="M1848,397.3c-4.7,3.2-6.2,6.8-6.3,10.5v31.7c0,3.9,2.9,5.3,7,3l30.5-17.6
			c3.2-2.3,5.7-5.2,5.5-10.8l-0.3-30.2c0.2-4.8-3.4-5.8-6.6-4.2L1848,397.3z"/>
		<path id="path53322" class="st88" d="M1863.4,397.1v1.9v1.9l1.6-0.9l1.6-0.9v-1.9v-1.9l-1.6,0.9L1863.4,397.1z M1855.2,406.7v1.9
			v1.9l1.6-0.9l1.6-0.9v-1.9v-1.9l-1.6,0.9L1855.2,406.7z M1859.3,404.3v1.9v1.9l1.6-0.9l1.6-0.9v-1.9v-1.9l-1.6,0.9L1859.3,404.3z
			 M1863.4,402v1.9v1.9l1.6-0.9l1.6-0.9V402v-1.9l-1.6,0.9L1863.4,402z M1875,397.4c0,0-0.4,0.8-0.6,1.1c-0.3,0.6-0.5,1.5-0.6,2.4
			c0,0.4,0,1.3,0,1.6c0.1,0.7,0.3,1.2,0.6,1.5c0.1,0.1,0.1,0.1,0.1,0.2c0,0-0.4,0.4-0.8,0.9c-0.2,0.2-0.4,0.4-0.5,0.5
			c-0.2,0.2-0.7,0.6-1,0.8c-0.2,0.2-0.9,0.6-11.5,6.7l-11.3,6.5l0,0.2c-0.1,0.7-0.1,0.7-0.1,1.6c0,0.9,0,1.2,0.1,1.8
			c0.1,0.7,0.4,1.5,0.6,2.1c0,0.1,0.1,0.3,0.2,0.4c0.1,0.1,0.2,0.3,0.2,0.3c0,0.1,0.4,0.6,0.7,0.8c0.6,0.5,1.4,0.9,2.2,1
			c0.4,0.1,1,0.1,1.5,0.1c1.3-0.1,2.8-0.5,4.4-1.4c0.4-0.2,1.9-1.1,2.5-1.5c2.1-1.4,3.8-2.8,5.5-4.5c1.9-1.9,3.7-4.1,5.1-6.3
			c1.8-2.8,3.2-5.8,4.2-9.1c0.1-0.3,0.2-0.5,0.2-0.6l0-0.1l0.6-0.3c0.7-0.4,1-0.7,1.6-1.1c0.4-0.4,0.7-0.7,1.1-1.1
			c0.6-0.7,1.1-1.6,1.4-2.4c0.1-0.1,0.2-0.4,0.2-0.6c0.1-0.2,0.1-0.4,0.1-0.4c0,0-0.7-0.1-0.9-0.1c-0.6,0-1.4,0.3-2.1,0.8
			c-0.3,0.2-0.8,0.5-1.1,0.8c-0.1,0.1-0.2,0.1-0.2,0.2c0,0,0-0.1-0.1-0.2c-0.1-0.7-0.4-1.3-0.9-1.7c-0.2-0.2-0.5-0.4-0.7-0.5
			C1875.6,397.6,1875,397.4,1875,397.4L1875,397.4z M1870.7,402.5l-1.6,1l-1.6,1l0,1.9c0,1,0,1.9,0,1.9c0,0,0.3-0.2,1.6-0.9l1.6-0.9
			l0-1.9L1870.7,402.5z M1851.2,413.8v1.9v1.9l1.6-0.9l1.6-0.9v-1.9v-1.9l-1.6,0.9L1851.2,413.8z M1855.2,411.4v1.9v1.9l1.6-0.9
			l1.6-0.9v-1.9v-1.9l-1.6,0.9L1855.2,411.4z M1859.3,409v1.9v1.9l1.6-0.9l1.6-0.9v-1.9v-1.9l-1.6,0.9L1859.3,409z M1863.4,406.7
			v1.9v1.9l1.6-0.9l1.6-0.9v-1.9v-1.9l-1.6,0.9L1863.4,406.7z M1855.7,419.4c0.3-0.2,0.6-0.3,0.9-0.3c0.4,0,0.8,0.2,0.9,0.7
			c0.1,0.2,0.1,0.7,0,0.9c-0.2,0.8-0.7,1.6-1.3,2.2l0,0c-0.2,0.1-0.2,0.2-0.4,0.3c-0.2,0.1-0.3,0.1-0.5,0.2c-0.5,0.1-1-0.1-1.2-0.6
			c-0.1-0.1-0.1-0.2-0.1-0.5c0-0.3,0-0.4,0.1-0.6c0.1-0.4,0.2-0.6,0.4-1c0.2-0.4,0.4-0.6,0.7-0.9
			C1855.4,419.6,1855.5,419.5,1855.7,419.4L1855.7,419.4z"/>
	</g>
	<g id="g53378" transform="translate(-11.234043,654.38298)">
		
			<linearGradient id="path53326_1_" gradientUnits="userSpaceOnUse" x1="1333.8641" y1="702.5662" x2="1327.1438" y2="717.7497" gradientTransform="matrix(2.5277 0 0 -2.5277 -2295.9165 2380.9062)">
			<stop  offset="0" style="stop-color:#2B343E"/>
			<stop  offset="1" style="stop-color:#333F47"/>
		</linearGradient>
		<path id="path53326" class="st89" d="M1073.2,589.3l-8.8,5v10.3l8.8,5.2l8.8-5.2v-10.3L1073.2,589.3z"/>
		
			<linearGradient id="path53328_1_" gradientUnits="userSpaceOnUse" x1="1332.0254" y1="701.7523" x2="1325.3051" y2="716.9359" gradientTransform="matrix(2.5277 0 0 -2.5277 -2295.9163 2380.9062)">
			<stop  offset="0" style="stop-color:#2B343E"/>
			<stop  offset="1" style="stop-color:#333F47"/>
		</linearGradient>
		<path id="path53328" class="st90" d="M1064.4,594.3v10.3l8.8,5.2v-10.2L1064.4,594.3z"/>
		
			<linearGradient id="path53330_1_" gradientUnits="userSpaceOnUse" x1="1335.782" y1="705.4164" x2="1326.1653" y2="691.4616" gradientTransform="matrix(2.5277 0 0 -2.5277 -2295.9163 2380.9062)">
			<stop  offset="0" style="stop-color:#2B343E"/>
			<stop  offset="1" style="stop-color:#333F47"/>
		</linearGradient>
		<path id="path53330" class="st91" d="M1082,594.3v10.3l-8.8,5.2v-10.2L1082,594.3z"/>
		
			<linearGradient id="path53332_1_" gradientUnits="userSpaceOnUse" x1="1332.9044" y1="708.0977" x2="1332.7665" y2="698.1801" gradientTransform="matrix(2.5277 0 0 -2.5277 -2295.9163 2380.9062)">
			<stop  offset="0" style="stop-color:#2B343E"/>
			<stop  offset="1" style="stop-color:#333F47"/>
		</linearGradient>
		<path id="path53332" class="st92" d="M1064.4,594.3l8.8,5.2l8.8-5.2l-8.8-5L1064.4,594.3z"/>
		<g id="g53340" transform="matrix(1.4809368,0,0,1.4809368,-1019.8026,1193.6531)" class="st25">
			
				<linearGradient id="path53334_1_" gradientUnits="userSpaceOnUse" x1="1454.8505" y1="-406.2585" x2="1443.9645" y2="-390.4642" gradientTransform="matrix(5.5972 0 0 -5.5972 -6736.3755 -2652.4299)">
				<stop  offset="0" style="stop-color:#B9A44C"/>
				<stop  offset="1" style="stop-color:#F6CB3B;stop-opacity:0.698"/>
			</linearGradient>
			<path id="path53334" class="st93" d="M1394.9-397.8v15.4l13.2,7.7V-390L1394.9-397.8z"/>
			
				<linearGradient id="path53336_1_" gradientUnits="userSpaceOnUse" x1="1455.2256" y1="-406.5735" x2="1465.9846" y2="-388.8381" gradientTransform="matrix(5.5972 0 0 -5.5972 -6736.3755 -2652.4299)">
				<stop  offset="0" style="stop-color:#A68E2B"/>
				<stop  offset="1" style="stop-color:#F6D752;stop-opacity:0.451"/>
			</linearGradient>
			<path id="path53336" class="st94" d="M1421.2-397.8v15.4l-13.2,7.7V-390L1421.2-397.8z"/>
			
				<linearGradient id="path53338_1_" gradientUnits="userSpaceOnUse" x1="1452.6664" y1="-402.8341" x2="1479.6482" y2="-402.8341" gradientTransform="matrix(5.5972 0 0 -5.5972 -6736.3755 -2652.4299)">
				<stop  offset="0" style="stop-color:#F6BC00;stop-opacity:0.698"/>
				<stop  offset="1" style="stop-color:#F6D752;stop-opacity:0.451"/>
			</linearGradient>
			<path id="path53338" class="st95" d="M1394.9-397.8l13.2,7.8l13.2-7.8l-13.2-7.5L1394.9-397.8z"/>
		</g>
		
			<linearGradient id="path53342_1_" gradientUnits="userSpaceOnUse" x1="1214.3944" y1="636.3176" x2="1207.6741" y2="651.5012" gradientTransform="matrix(3.7795 0 0 -3.7795 -3512.9045 3045.6819)">
			<stop  offset="0" style="stop-color:#2B343E"/>
			<stop  offset="1" style="stop-color:#333F47"/>
		</linearGradient>
		<path id="path53342" class="st96" d="M1073.2,617.1l-13.2,7.5V640l13.2,7.7l13.2-7.7v-15.4L1073.2,617.1z"/>
		<g id="g53350" transform="translate(-664.04562,1121.8171)">
			
				<linearGradient id="path53344_1_" gradientUnits="userSpaceOnUse" x1="1876.6012" y1="-486.3134" x2="1869.8809" y2="-471.1298" gradientTransform="matrix(3.7795 0 0 -3.7795 -5358.6377 -2316.0742)">
				<stop  offset="0" style="stop-color:#2B343E"/>
				<stop  offset="1" style="stop-color:#333F47"/>
			</linearGradient>
			<path id="path53344" class="st97" d="M1724.1-497.1v15.4l13.2,7.7v-15.3L1724.1-497.1z"/>
			
				<linearGradient id="path53346_1_" gradientUnits="userSpaceOnUse" x1="1880.3578" y1="-482.6493" x2="1870.7412" y2="-496.6041" gradientTransform="matrix(3.7795 0 0 -3.7795 -5358.6377 -2316.0742)">
				<stop  offset="0" style="stop-color:#2B343E"/>
				<stop  offset="1" style="stop-color:#333F47"/>
			</linearGradient>
			<path id="path53346" class="st98" d="M1750.4-497.1v15.4l-13.2,7.7v-15.3L1750.4-497.1z"/>
			
				<linearGradient id="path53348_1_" gradientUnits="userSpaceOnUse" x1="1877.4802" y1="-479.968" x2="1877.3423" y2="-489.8856" gradientTransform="matrix(3.7795 0 0 -3.7795 -5358.6377 -2316.0742)">
				<stop  offset="0" style="stop-color:#2B343E"/>
				<stop  offset="1" style="stop-color:#333F47"/>
			</linearGradient>
			<path id="path53348" class="st99" d="M1724.1-497.1l13.2,7.8l13.2-7.8l-13.2-7.5L1724.1-497.1z"/>
		</g>
		<g id="g53358" transform="matrix(1.4809368,0,0,1.4809368,-1011.9816,1210.0568)" class="st25">
			
				<linearGradient id="path53352_1_" gradientUnits="userSpaceOnUse" x1="1449.5695" y1="-417.3351" x2="1438.6835" y2="-401.5408" gradientTransform="matrix(5.5972 0 0 -5.5972 -6706.8159 -2714.428)">
				<stop  offset="0" style="stop-color:#B9A44C"/>
				<stop  offset="1" style="stop-color:#F6CB3B;stop-opacity:0.698"/>
			</linearGradient>
			<path id="path53352" class="st100" d="M1394.9-397.8v15.4l13.2,7.7V-390L1394.9-397.8z"/>
			
				<linearGradient id="path53354_1_" gradientUnits="userSpaceOnUse" x1="1449.9445" y1="-417.65" x2="1460.7036" y2="-399.9147" gradientTransform="matrix(5.5972 0 0 -5.5972 -6706.8159 -2714.428)">
				<stop  offset="0" style="stop-color:#A68E2B"/>
				<stop  offset="1" style="stop-color:#F6D752;stop-opacity:0.451"/>
			</linearGradient>
			<path id="path53354" class="st101" d="M1421.2-397.8v15.4l-13.2,7.7V-390L1421.2-397.8z"/>
			
				<linearGradient id="path53356_1_" gradientUnits="userSpaceOnUse" x1="1447.3853" y1="-413.9106" x2="1474.3671" y2="-413.9106" gradientTransform="matrix(5.5972 0 0 -5.5972 -6706.8159 -2714.428)">
				<stop  offset="0" style="stop-color:#F6BC00;stop-opacity:0.698"/>
				<stop  offset="1" style="stop-color:#F6D752;stop-opacity:0.451"/>
			</linearGradient>
			<path id="path53356" class="st102" d="M1394.9-397.8l13.2,7.8l13.2-7.8l-13.2-7.5L1394.9-397.8z"/>
		</g>
		
			<linearGradient id="path53360_1_" gradientUnits="userSpaceOnUse" x1="1214.3944" y1="636.3176" x2="1207.6741" y2="651.5012" gradientTransform="matrix(3.7795 0 0 -3.7795 -3471.1282 3043.7478)">
			<stop  offset="0" style="stop-color:#2B343E"/>
			<stop  offset="1" style="stop-color:#333F47"/>
		</linearGradient>
		<path id="path53360" class="st103" d="M1115,615.2l-13.2,7.5v15.4l13.2,7.7l13.2-7.7v-15.4L1115,615.2z"/>
		<g id="g53368" transform="translate(-622.26903,1119.8831)">
			
				<linearGradient id="path53362_1_" gradientUnits="userSpaceOnUse" x1="1834.8247" y1="-484.3793" x2="1828.1044" y2="-469.1957" gradientTransform="matrix(3.7795 0 0 -3.7795 -5200.7422 -2308.7644)">
				<stop  offset="0" style="stop-color:#2B343E"/>
				<stop  offset="1" style="stop-color:#333F47"/>
			</linearGradient>
			<path id="path53362" class="st104" d="M1724.1-497.1v15.4l13.2,7.7v-15.3L1724.1-497.1z"/>
			
				<linearGradient id="path53364_1_" gradientUnits="userSpaceOnUse" x1="1838.5813" y1="-480.7152" x2="1828.9646" y2="-494.67" gradientTransform="matrix(3.7795 0 0 -3.7795 -5200.7422 -2308.7644)">
				<stop  offset="0" style="stop-color:#2B343E"/>
				<stop  offset="1" style="stop-color:#333F47"/>
			</linearGradient>
			<path id="path53364" class="st105" d="M1750.4-497.1v15.4l-13.2,7.7v-15.3L1750.4-497.1z"/>
			
				<linearGradient id="path53366_1_" gradientUnits="userSpaceOnUse" x1="1835.7036" y1="-478.0339" x2="1835.5657" y2="-487.9515" gradientTransform="matrix(3.7795 0 0 -3.7795 -5200.7422 -2308.7644)">
				<stop  offset="0" style="stop-color:#2B343E"/>
				<stop  offset="1" style="stop-color:#333F47"/>
			</linearGradient>
			<path id="path53366" class="st106" d="M1724.1-497.1l13.2,7.8l13.2-7.8l-13.2-7.5L1724.1-497.1z"/>
		</g>
		<g id="g53376" transform="matrix(0.76685181,0,0,0.76685181,-453.75446,1059.1543)">
			
				<linearGradient id="path53370_1_" gradientUnits="userSpaceOnUse" x1="2269.252" y1="-499.4848" x2="2258.366" y2="-483.6906" gradientTransform="matrix(2.8983 0 0 -2.8983 -4532.8047 -2018.525)">
				<stop  offset="0" style="stop-color:#B9A44C"/>
				<stop  offset="1" style="stop-color:#F6CB3B;stop-opacity:0.698"/>
			</linearGradient>
			<path id="path53370" class="st107" d="M2032.4-590.1v15.4l13.2,7.7v-15.3L2032.4-590.1z"/>
			
				<linearGradient id="path53372_1_" gradientUnits="userSpaceOnUse" x1="2269.9763" y1="-500.0931" x2="2280.7354" y2="-482.3578" gradientTransform="matrix(2.8983 0 0 -2.8983 -4532.8047 -2018.525)">
				<stop  offset="0" style="stop-color:#A68E2B"/>
				<stop  offset="1" style="stop-color:#F6D752;stop-opacity:0.451"/>
			</linearGradient>
			<path id="path53372" class="st108" d="M2058.7-590.1v15.4l-13.2,7.7v-15.3L2058.7-590.1z"/>
			
				<linearGradient id="path53374_1_" gradientUnits="userSpaceOnUse" x1="2265.0342" y1="-492.8716" x2="2292.0159" y2="-492.8716" gradientTransform="matrix(2.8983 0 0 -2.8983 -4532.8047 -2018.525)">
				<stop  offset="0" style="stop-color:#F6BC00;stop-opacity:0.698"/>
				<stop  offset="1" style="stop-color:#F6D752;stop-opacity:0.451"/>
			</linearGradient>
			<path id="path53374" class="st109" d="M2032.4-590.1l13.2,7.8l13.2-7.8l-13.2-7.5L2032.4-590.1z"/>
		</g>
	</g>
	<g id="g53384" transform="translate(-11.234043,654.38298)">
		
			<linearGradient id="path53380_1_" gradientUnits="userSpaceOnUse" x1="882.8263" y1="540.0193" x2="926.5458" y2="377.0583" gradientTransform="matrix(-6.5478 0 0 -6.5478 7021.5684 3805.4998)">
			<stop  offset="0" style="stop-color:#FBFBFB"/>
			<stop  offset="1" style="stop-color:#D5D8D9"/>
		</linearGradient>
		<path id="path53380" class="st110" d="M1320.1,291.7l-0.4,314.5c-0.1,15.6-8.5,23.6-23.2,15.3l-182.1-105.2
			c-8.3-5.3-15.6-11.3-15.5-22.4V168.5c-0.4-13.1,8.2-13.8,16.1-8.4l195.9,113.3C1316.3,276.4,1320.2,282.8,1320.1,291.7
			L1320.1,291.7z"/>
		
			<linearGradient id="path53382_1_" gradientUnits="userSpaceOnUse" x1="1342.7509" y1="440.3935" x2="1543.7377" y2="440.3935" gradientTransform="matrix(4.1611 0 0 -4.1611 -4488.5068 2052.6035)">
			<stop  offset="0" style="stop-color:#252D38"/>
			<stop  offset="1" style="stop-color:#2C3A40"/>
		</linearGradient>
		<path id="path53382" class="st111" d="M1106.3,128.3c2.6,0,5.7,1.2,8.7,3.2l195.9,113.3c5.4,3,9.3,9.4,9.2,18.3l0,48.7l-221.2-127
			v-45C1098.6,131.7,1101.9,128.4,1106.3,128.3L1106.3,128.3z"/>
	</g>
	<path id="path53444" class="st112" d="M1016.6,938.7l-5.2,3c-0.7,0.4-1,1.3-0.5,2c0.4,0.7,1.3,1,2,0.5l5.2-3c0.7-0.4,1-1.3,0.6-2
		c0,0,0,0,0,0C1018.2,938.5,1017.3,938.3,1016.6,938.7C1016.6,938.7,1016.6,938.7,1016.6,938.7z M1019.9,940c-0.8,0-1.5,0.7-1.5,1.5
		v6c0,0.8,0.7,1.5,1.5,1.5c0,0,0,0,0,0c0.8,0,1.5-0.7,1.5-1.5c0,0,0,0,0,0v-6C1021.4,940.7,1020.7,940,1019.9,940
		C1019.9,940,1019.9,940,1019.9,940z M1007.3,944.5c-0.4-0.1-0.8,0-1.1,0.2l-5.2,3c-0.7,0.4-1,1.3-0.5,2c0.4,0.7,1.3,1,2,0.5l5.2-3
		c0.7-0.4,1-1.3,0.5-2c0,0,0,0,0,0C1008,944.9,1007.7,944.6,1007.3,944.5z M995.8,950.7l-5.2,3c-0.7,0.4-1,1.3-0.6,2
		c0.4,0.7,1.3,1,2,0.5c0,0,0,0,0,0l5.2-3c0.7-0.4,1-1.3,0.5-2c0,0,0,0,0,0C997.4,950.5,996.5,950.3,995.8,950.7L995.8,950.7z
		 M1019.9,952c-0.8,0-1.5,0.7-1.5,1.5v6c0,0.8,0.7,1.5,1.5,1.5c0,0,0,0,0,0c0.8,0,1.5-0.7,1.5-1.5c0,0,0,0,0,0v-6
		C1021.4,952.7,1020.7,952,1019.9,952C1019.9,952,1019.9,952,1019.9,952z M985.4,956.7l-5.2,3c-0.7,0.4-1,1.3-0.5,2
		c0.4,0.7,1.3,1,2,0.5l5.2-3c0.7-0.4,1-1.3,0.6-2c0,0,0,0,0,0C987,956.5,986.1,956.3,985.4,956.7
		C985.4,956.7,985.4,956.7,985.4,956.7z M1019.9,964c-0.8,0-1.5,0.7-1.5,1.5v6c0,0.8,0.7,1.5,1.5,1.5c0,0,0,0,0,0
		c0.8,0,1.5-0.7,1.5-1.5c0,0,0,0,0,0v-6C1021.4,964.7,1020.7,964,1019.9,964C1019.9,964,1019.9,964,1019.9,964z M1019.9,976
		c-0.8,0-1.5,0.7-1.5,1.5v6c0,0.8,0.7,1.5,1.5,1.5c0,0,0,0,0,0c0.8,0,1.5-0.7,1.5-1.5c0,0,0,0,0,0v-6
		C1021.4,976.7,1020.7,976,1019.9,976C1019.9,976,1019.9,976,1019.9,976z M1019.9,988c-0.8,0-1.5,0.7-1.5,1.5v6
		c0,0.8,0.7,1.5,1.5,1.5c0.8,0,1.5-0.7,1.5-1.5c0,0,0,0,0,0v-6C1021.4,988.7,1020.7,988,1019.9,988
		C1019.9,988,1019.9,988,1019.9,988z M1019.9,1000c-0.8,0-1.5,0.7-1.5,1.5c0,0,0,0,0,0v6c0,0.8,0.7,1.5,1.5,1.5
		c0.8,0,1.5-0.7,1.5-1.5c0,0,0,0,0,0v-6C1021.4,1000.7,1020.7,1000,1019.9,1000C1019.9,1000,1019.9,1000,1019.9,1000z M1019.9,1012
		c-0.8,0-1.5,0.7-1.5,1.5c0,0,0,0,0,0v6c0,0.8,0.7,1.5,1.5,1.5c0.8,0,1.5-0.7,1.5-1.5c0,0,0,0,0,0v-6
		C1021.4,1012.7,1020.7,1012,1019.9,1012C1019.9,1012,1019.9,1012,1019.9,1012z M1019.9,1024c-0.8,0-1.5,0.7-1.5,1.5c0,0,0,0,0,0v6
		c0,0.8,0.7,1.5,1.5,1.5c0.8,0,1.5-0.7,1.5-1.5c0,0,0,0,0,0v-6C1021.4,1024.7,1020.7,1024,1019.9,1024
		C1019.9,1024,1019.9,1024,1019.9,1024z M1019.9,1036c-0.8,0-1.5,0.7-1.5,1.5c0,0,0,0,0,0v6c0,0.8,0.7,1.5,1.5,1.5
		c0.8,0,1.5-0.7,1.5-1.5c0,0,0,0,0,0v-6C1021.4,1036.7,1020.7,1036,1019.9,1036C1019.9,1036,1019.9,1036,1019.9,1036z M1019.9,1048
		c-0.8,0-1.5,0.7-1.5,1.5c0,0,0,0,0,0v6c0,0.8,0.7,1.5,1.5,1.5c0.8,0,1.5-0.7,1.5-1.5c0,0,0,0,0,0v-6
		C1021.4,1048.7,1020.7,1048,1019.9,1048C1019.9,1048,1019.9,1048,1019.9,1048z M1019.9,1060c-0.8,0-1.5,0.7-1.5,1.5v6
		c0,0.8,0.7,1.5,1.5,1.5c0.8,0,1.5-0.7,1.5-1.5c0,0,0,0,0,0v-6C1021.4,1060.7,1020.7,1060,1019.9,1060
		C1019.9,1060,1019.9,1060,1019.9,1060z M1019.9,1072c-0.8,0-1.5,0.7-1.5,1.5v6c0,0.8,0.7,1.5,1.5,1.5c0.8,0,1.5-0.7,1.5-1.5
		c0,0,0,0,0,0v-6C1021.4,1072.7,1020.7,1072,1019.9,1072C1019.9,1072,1019.9,1072,1019.9,1072z M1019.9,1084c-0.8,0-1.5,0.7-1.5,1.5
		v6c0,0.8,0.7,1.5,1.5,1.5c0.8,0,1.5-0.7,1.5-1.5c0,0,0,0,0,0v-6C1021.4,1084.7,1020.7,1084,1019.9,1084
		C1019.9,1084,1019.9,1084,1019.9,1084z M1019.9,1096c-0.8,0-1.5,0.7-1.5,1.5v6c0,0.8,0.7,1.5,1.5,1.5c0.8,0,1.5-0.7,1.5-1.5
		c0,0,0,0,0,0v-6C1021.4,1096.7,1020.7,1096,1019.9,1096C1019.9,1096,1019.9,1096,1019.9,1096z M1019.9,1108.1
		c-0.8,0-1.5,0.7-1.5,1.5v6c0,0.8,0.7,1.5,1.5,1.5c0.8,0,1.5-0.7,1.5-1.5c0,0,0,0,0,0v-6C1021.4,1108.7,1020.7,1108.1,1019.9,1108.1
		C1019.9,1108.1,1019.9,1108.1,1019.9,1108.1z M1019.9,1120.1c-0.8,0-1.5,0.7-1.5,1.5v6c0,0.8,0.7,1.5,1.5,1.5
		c0.8,0,1.5-0.7,1.5-1.5c0,0,0,0,0,0v-6C1021.4,1120.7,1020.7,1120.1,1019.9,1120.1C1019.9,1120.1,1019.9,1120.1,1019.9,1120.1z
		 M1019.9,1132.1c-0.8,0-1.5,0.7-1.5,1.5v6c0,0.8,0.7,1.5,1.5,1.5c0.8,0,1.5-0.7,1.5-1.5c0,0,0,0,0,0v-6
		C1021.4,1132.7,1020.7,1132.1,1019.9,1132.1C1019.9,1132.1,1019.9,1132.1,1019.9,1132.1z M1019.9,1144.1c-0.8,0-1.5,0.7-1.5,1.5v6
		c0,0.8,0.7,1.5,1.5,1.5c0.8,0,1.5-0.7,1.5-1.5c0,0,0,0,0,0v-6C1021.4,1144.7,1020.7,1144.1,1019.9,1144.1
		C1019.9,1144.1,1019.9,1144.1,1019.9,1144.1z M1019.9,1156.1c-0.8,0-1.5,0.7-1.5,1.5v6c0,0.8,0.7,1.5,1.5,1.5
		c0.8,0,1.5-0.7,1.5-1.5c0,0,0,0,0,0v-6C1021.4,1156.7,1020.7,1156.1,1019.9,1156.1C1019.9,1156.1,1019.9,1156.1,1019.9,1156.1z
		 M1170.7,1160.4c-0.4,0.1-0.7,0.4-0.8,0.8l-2.2,5.2c-0.3,0.8,0,1.6,0.8,2c0.8,0.3,1.6,0,2-0.8c0,0,0,0,0,0l2.2-5.2
		c0.3-0.8,0-1.6-0.8-2c0,0,0,0,0,0C1171.5,1160.2,1171.1,1160.2,1170.7,1160.4L1170.7,1160.4z M1019.9,1168.1
		c-0.8,0-1.5,0.7-1.5,1.5v6c0,0.8,0.7,1.5,1.5,1.5c0.8,0,1.5-0.7,1.5-1.5c0,0,0,0,0,0v-6C1021.4,1168.7,1020.7,1168.1,1019.9,1168.1
		C1019.9,1168.1,1019.9,1168.1,1019.9,1168.1z M1166,1171c-0.4,0.1-0.7,0.4-0.8,0.8l-2.4,5.5c-0.3,0.8,0,1.6,0.8,2c0,0,0,0,0,0
		c0.8,0.3,1.6,0,2-0.8l2.4-5.5c0.3-0.8,0-1.6-0.8-2C1166.8,1170.9,1166.4,1170.9,1166,1171L1166,1171z M1019.9,1180.1
		c-0.8,0-1.5,0.7-1.5,1.5v6c0,0.8,0.7,1.5,1.5,1.5c0,0,0,0,0,0c0.8,0,1.5-0.7,1.5-1.5c0,0,0,0,0,0v-6
		C1021.4,1180.7,1020.7,1180.1,1019.9,1180.1C1019.9,1180.1,1019.9,1180.1,1019.9,1180.1z M1161.2,1182c-0.4,0.1-0.7,0.4-0.8,0.8
		l-2.4,5.5c-0.3,0.8,0,1.6,0.8,2c0.8,0.3,1.6,0,2-0.8c0,0,0,0,0,0l2.4-5.5c0.3-0.8,0-1.6-0.8-2c0,0,0,0,0,0
		C1162,1181.9,1161.6,1181.9,1161.2,1182L1161.2,1182z M1019.6,1192.1c-0.4,0.1-0.7,0.4-0.9,0.7c-0.4,0.7-0.2,1.6,0.5,2l5.2,3
		c0.7,0.4,1.6,0.2,2-0.6c0.4-0.7,0.2-1.6-0.5-2l-5.2-3C1020.4,1192,1020,1192,1019.6,1192.1z M1156.5,1193c-0.4,0.1-0.7,0.4-0.8,0.8
		l-2.4,5.5c-0.3,0.8,0,1.6,0.8,2c0,0,0,0,0,0c0.8,0.3,1.6,0,2-0.8c0,0,0,0,0,0l2.4-5.5c0.3-0.8,0-1.6-0.8-2
		C1157.2,1192.9,1156.8,1192.9,1156.5,1193L1156.5,1193z M1031.1,1198.2c-0.7-0.4-1.6-0.2-2,0.6c-0.4,0.7-0.2,1.6,0.5,2l5.2,3
		c0.7,0.4,1.6,0.2,2-0.5c0,0,0,0,0,0c0.4-0.7,0.2-1.6-0.5-2L1031.1,1198.2z M1149.2,1202.1l-5.2,3c-0.7,0.4-1,1.3-0.5,2
		c0.4,0.7,1.3,1,2,0.6l5.2-3c0.7-0.4,1-1.3,0.5-2C1150.8,1201.9,1149.9,1201.7,1149.2,1202.1
		C1149.2,1202.1,1149.2,1202.1,1149.2,1202.1z M1040.4,1204.1c-0.4,0.1-0.7,0.4-0.9,0.7c-0.4,0.7-0.2,1.6,0.5,2l5.2,3
		c0.7,0.4,1.6,0.2,2-0.5c0,0,0,0,0,0c0.4-0.7,0.2-1.6-0.6-2l-5.2-3C1041.2,1204,1040.8,1204,1040.4,1204.1z M1139.9,1208
		c-0.4-0.1-0.8,0-1.1,0.1l-5.2,3c-0.7,0.4-1,1.3-0.5,2c0.4,0.7,1.3,1,2,0.6c0,0,0,0,0,0l5.2-3c0.7-0.4,1-1.3,0.5-2
		C1140.7,1208.3,1140.3,1208.1,1139.9,1208L1139.9,1208z M1051.9,1210.2c-0.7-0.4-1.6-0.2-2,0.5c0,0,0,0,0,0c-0.4,0.7-0.2,1.6,0.5,2
		l5.2,3c0.7,0.4,1.6,0.2,2-0.6c0.4-0.7,0.2-1.6-0.5-2L1051.9,1210.2z M1129.5,1214c-0.4-0.1-0.8-0.1-1.1,0.1l-5.2,3
		c-0.7,0.4-1,1.3-0.5,2c0.4,0.7,1.3,1,2,0.6l5.2-3c0.7-0.4,1-1.3,0.6-2C1130.3,1214.3,1129.9,1214.1,1129.5,1214z M1061.2,1216.1
		c-0.4,0.1-0.7,0.4-0.9,0.7c-0.4,0.7-0.2,1.6,0.5,2l5.2,3c0.7,0.4,1.6,0.2,2-0.5c0,0,0,0,0,0c0.4-0.7,0.2-1.6-0.5-2l-5.2-3
		C1062,1216,1061.6,1216,1061.2,1216.1z M1119.1,1220c-0.4-0.1-0.8,0-1.1,0.1l-5.2,3c-0.7,0.4-1,1.3-0.5,2c0.4,0.7,1.3,1,2,0.6
		l5.2-3c0.7-0.4,1-1.3,0.5-2C1119.9,1220.3,1119.5,1220.1,1119.1,1220z M1072.7,1222.2c-0.7-0.4-1.6-0.2-2,0.5c0,0,0,0,0,0
		c-0.4,0.7-0.2,1.6,0.6,2l5.2,3c0.7,0.4,1.6,0.2,2-0.6c0.4-0.7,0.2-1.6-0.5-2L1072.7,1222.2z M1108.8,1226c-0.4-0.1-0.8-0.1-1.1,0.1
		l-5.2,3c-0.7,0.4-1,1.3-0.6,2c0.4,0.7,1.3,1,2,0.6c0,0,0,0,0,0l5.2-3c0.7-0.4,1-1.3,0.5-2C1109.5,1226.3,1109.1,1226.1,1108.8,1226
		z M1082,1228.1c-0.4,0.1-0.7,0.4-0.9,0.7c-0.4,0.7-0.2,1.6,0.5,2l5.2,3c0.7,0.4,1.6,0.2,2-0.6c0.4-0.7,0.2-1.6-0.5-2l-5.2-3
		C1082.8,1228,1082.4,1228,1082,1228.1z M1097.2,1232.1l-3.7,2.1h0c-0.7-0.4-1.6-0.2-2,0.5c-0.4,0.7-0.2,1.6,0.5,2l0.8,0.4
		c0.5,0.3,1,0.3,1.5,0l4.4-2.6c0.7-0.4,1-1.3,0.6-2C1098.9,1232,1097.9,1231.7,1097.2,1232.1
		C1097.2,1232.1,1097.2,1232.1,1097.2,1232.1L1097.2,1232.1z"/>
	<path id="path53446" class="st75" d="M960.4,1161.2l-6.7-22.2c-0.2-0.6-0.5-1-1-1.3c-0.5-0.3-1.1-0.4-1.8-0.3l-27.3,2.3
		c-0.7,0.1-1.4,0.3-2.2,0.7c-0.8,0.4-1.5,0.9-2.2,1.5l-27.3,25c-0.7,0.6-1.3,1.3-1.8,2.1s-0.8,1.5-1,2.3l-6.7,28.9
		c-0.2,0.7-0.2,1.4,0,2c0.2,0.6,0.5,1,1,1.3l18.9,11c0.5,0.3,1.1,0.4,1.8,0.3c0.7-0.1,1.4-0.3,2.2-0.7l30.3-15.1
		c0.8-0.4,1.5-0.9,2.2-1.5c0.7-0.6,1.3-1.3,1.8-2.1l18.9-29.9c0.5-0.8,0.8-1.5,0.9-2.2C960.6,1162.4,960.6,1161.8,960.4,1161.2
		L960.4,1161.2z M952.5,1165.4c-0.1,0.6-0.4,1.3-0.9,1.8c-0.5,0.6-1.1,1.1-1.7,1.4c-0.2,0.1-0.5,0.2-0.7,0.3l-8.6,2.2l-7.8,12.4
		l3.8,5.4c0.3,0.4,0.4,0.9,0.2,1.5c-0.1,0.6-0.5,1.3-1,1.9c-0.3,0.4-0.7,0.7-1.1,1c-0.4,0.3-0.8,0.5-1.2,0.6
		c-0.4,0.1-0.8,0.1-1.1,0.1c-0.3-0.1-0.6-0.2-0.7-0.5l-3.9-5.4l-12.5,6.3l-3.9,9.2c-0.2,0.4-0.4,0.8-0.7,1.2c-0.3,0.4-0.7,0.7-1.1,1
		c-0.4,0.3-0.8,0.5-1.2,0.6c-0.4,0.1-0.8,0.2-1.1,0.1c-0.5-0.1-0.9-0.4-1-0.9c-0.1-0.5-0.1-1.1,0.2-1.7l3.8-9.2l-7.9-4.6l-8.5,6.4
		c-0.2,0.2-0.5,0.3-0.7,0.5c-0.6,0.3-1.2,0.4-1.7,0.3c-0.5-0.1-0.8-0.4-0.9-0.9c-0.1-0.5,0.1-1.2,0.4-1.9c0.4-0.7,1-1.3,1.6-1.8
		l8.6-6.4l2.8-12l-6.6-1c-0.3,0-0.6-0.2-0.7-0.4c-0.2-0.2-0.3-0.4-0.3-0.8c0-0.3,0-0.7,0.1-1c0.1-0.4,0.3-0.8,0.6-1.1
		c0.5-0.7,1.1-1.3,1.8-1.7c0.7-0.4,1.4-0.5,1.9-0.4l6.7,0.9l11.5-10.5v-7.2c0-0.3,0.1-0.7,0.2-1.1c0.2-0.4,0.4-0.8,0.7-1.1
		s0.6-0.7,1-1c0.4-0.3,0.7-0.5,1.1-0.7c0.7-0.3,1.3-0.3,1.8,0s0.7,0.7,0.7,1.3v7.1l11.5-1l6.9-7.8c0.3-0.3,0.7-0.7,1-0.9
		c0.4-0.3,0.8-0.4,1.1-0.6c0.4-0.1,0.7-0.2,1-0.1c0.3,0,0.6,0.2,0.8,0.3c0.3,0.4,0.4,0.9,0.3,1.6c-0.2,0.7-0.6,1.4-1.1,2l-8.1,9.2
		l-0.1,0c-0.2,0.2-0.4,0.5-0.7,0.6l-0.1,0.1c-0.2,0.2-0.4,0.3-0.7,0.4l-0.1,0.1c-0.2,0.1-0.3,0.2-0.5,0.2l-0.1,0.1
		c-0.2,0.1-0.4,0.1-0.5,0.1l0,0l-7.8,0.6c-1.7,0.1-3.6,0.7-5.5,1.7c-1.9,1-3.8,2.3-5.5,3.8l-1.1,1c-1.7,1.6-3.3,3.4-4.5,5.3
		c-1.2,1.9-2,3.8-2.4,5.7l-0.3,1.1c-0.4,1.8-0.4,3.5,0,4.9c0.4,1.4,1.3,2.5,2.5,3.1l0.8,0.4c1.2,0.7,2.7,1,4.4,0.8
		c1.7-0.1,3.6-0.7,5.5-1.7l1.2-0.6c1.9-1,3.8-2.3,5.5-3.8c1.7-1.6,3.2-3.4,4.4-5.2l2.8-4.5l-14.1,3.7c-0.4,0.1-0.7,0.1-1,0.1
		c-0.3-0.1-0.5-0.2-0.7-0.4s-0.3-0.5-0.3-0.8s0-0.7,0.2-1.1c0.3-0.7,0.8-1.4,1.4-1.9c0.6-0.6,1.3-1,2-1.1l17.6-4.5l10.1-2.6
		c0.7-0.2,1.3-0.2,1.7,0.1C952.4,1164.2,952.5,1164.7,952.5,1165.4L952.5,1165.4z"/>
	<path id="path53448" class="st113" d="M1154.1,1201l-21,22.5l-12.9-13.8L1154.1,1201z"/>
	<path id="path53450" class="st113" d="M974.4,963.7l17.4,1l-0.4-18.9L974.4,963.7z"/>
	<path id="path53452" class="st76" d="M1184.6,890.3c-1.2-1.3-14.6-24.1-15.2-25.8c-0.6-1.8,5.3-18.7,6.7-19.2
		c1.2-0.4,21.9,2,23.1,2.7c1.4,0.8,22.5,21.7,23,22.9c0.6,1.3,4.9,23,4.8,24.3c0,1-15.6,9.6-16.9,9.4
		C1208.6,904.2,1185.7,891.4,1184.6,890.3L1184.6,890.3z M1190.9,885.1c1.2-1.3,1.4-1.3,2.7-0.4c1.8,1.3,7.7,4.5,9.2,5
		c1,0.4,1.3,0.8,2.3,3.2c0.6,1.5,1.4,2.9,1.8,3.1c1.1,0.6,1.1-1.2,0.1-3.1c-0.5-1-0.9-1.9-0.9-2.2c0-0.2,1-0.7,2.3-1
		c1.2-0.3,2.9-1.2,3.7-2c1.5-1.4,1.5-1.4,3.2-0.3c3.2,2.2,4,2.7,4.1,2.1c0-0.7-0.8-1.6-3.2-3.4l-1.9-1.4l-0.2-2.6
		c-0.2-2.7-1-6.2-1.7-7.3c-0.8-1.3-0.3-2.1,1.6-2.2c1.9-0.1,2.5-1,1.5-2c-0.5-0.5-1.3-0.6-3.9-0.1l-1.3,0.2l-1.3-1.8
		c-1.6-2.2-3.9-4.6-6.6-6.7l-2.1-1.6l0-2.7c0-2.5-0.1-2.7-1.1-3.1c-0.9-0.4-1-0.2-1,1.3c0.1,3-0.2,3.3-2.4,2.5c-2.3-0.9-5-1.2-7-0.8
		c-1.4,0.3-1.5,0.2-2.5-1c-0.6-0.7-1.5-1.8-1.9-2.5c-0.5-0.7-1.1-1.4-1.5-1.6c-1.1-0.6-1.3,0.5-0.3,1.9c0.5,0.7,1.5,2,2.2,2.8
		l1.2,1.6l-1.2,1.4c-0.8,0.9-1.3,2.4-1.5,4.3l-0.3,2.9l-1.7-0.5c-0.9-0.3-2.1-0.7-2.7-0.9c-0.6-0.2-1,0-1,0.5c0,0.9,0.6,1.3,4.2,2.7
		c1.9,0.7,1.9,0.8,2.5,2.7c0.3,1.1,1.8,3.7,3.3,5.9c1.5,2.2,2.7,4.1,2.7,4.3c0,0.2-0.5,0.9-1.1,1.4c-1.1,1-1,2.7,0.1,3
		C1189.4,886.5,1190.2,885.9,1190.9,885.1L1190.9,885.1z M1195.4,883.3c-1.4-1-1.3-1.4,0.5-3.1c1.8-1.7,2.1-1.8,3-0.3
		c1,1.6,3.2,6.5,2.9,6.6C1201.5,886.6,1196.5,884.1,1195.4,883.3z M1189.2,876.5c-1.4-2.2-2.6-4.5-2.6-5.1c0-0.4,6.7,2.5,7.2,3.1
		c0.4,0.6-2,4.9-2.6,4.6C1190.9,879,1190.1,877.8,1189.2,876.5z M1203.7,883.6c-0.6-1.6-1.1-3.4-1.1-3.8c0-0.8,0.2-0.7,2.5,0.8
		c3.6,2.4,4.6,3.2,4.6,3.8c0,0.8-2.8,2.4-3.9,2.3C1204.9,886.6,1204.7,886.3,1203.7,883.6L1203.7,883.6z M1197.6,875.2
		c-1.9-1.7-1.4-4.3,0.6-3.2c1.4,0.7,2.2,1.9,2.1,3.1c0,0.8-1.4,1.2-2,0.7C1198.3,875.8,1197.9,875.5,1197.6,875.2L1197.6,875.2z
		 M1185.8,867c0.1-1.8,1.6-4.8,2.2-4.4c0.9,0.5,5.1,6.8,4.7,7.1c-0.2,0.1-1.5-0.1-2.9-0.5c-1.4-0.4-2.9-0.8-3.3-0.9
		C1185.9,868.3,1185.7,867.9,1185.8,867z M1207.3,878.9c-2.3-1.9-3.1-2.8-3.1-3.3c0-0.8,4.7-1.9,5.3-1.2c0.6,0.7,1.4,4.6,1.2,5.9
		l-0.2,1.2L1207.3,878.9z M1192.6,864.5c-1.1-1.4-2.1-2.8-2.1-3.1c0-0.6,3.2-0.5,5.2,0.1l1.3,0.4l-0.2,3c-0.2,2.6-0.4,2.9-1.2,2.6
		C1195.1,867.2,1193.7,865.9,1192.6,864.5L1192.6,864.5z M1200.4,867.2c-0.1-1.7-0.1-3.2,0-3.2c0.7-0.2,6.9,5.7,6.8,6.5
		c0,0.4-5.2,0.6-5.9,0.2C1200.8,870.4,1200.6,869.5,1200.4,867.2L1200.4,867.2z"/>
	<g id="g53518" transform="translate(-1039.3574,247.22674)">
		<g id="g53464">
			
				<linearGradient id="path53454_1_" gradientUnits="userSpaceOnUse" x1="2162.9248" y1="999.3379" x2="2156.2046" y2="1014.5214" gradientTransform="matrix(5.6405 0 0 -5.6405 -9811.3291 6311.2168)">
				<stop  offset="0" style="stop-color:#2B343E"/>
				<stop  offset="1" style="stop-color:#333F47"/>
			</linearGradient>
			<path id="path53454" class="st114" d="M2383.2,639.2l-19.6,11.3v22.9l19.6,11.5l19.6-11.5v-22.9L2383.2,639.2z"/>
			<g id="g53462" transform="matrix(1.4923938,0,0,1.4923938,289.72019,1241.7972)">
				
					<linearGradient id="path53456_1_" gradientUnits="userSpaceOnUse" x1="1253.9355" y1="-163.0087" x2="1247.2152" y2="-147.8252" gradientTransform="matrix(5.6405 0 0 -5.6405 -5673.3481 -1296.5692)">
					<stop  offset="0" style="stop-color:#2B343E"/>
					<stop  offset="1" style="stop-color:#333F47"/>
				</linearGradient>
				<path id="path53456" class="st115" d="M1389.6-396.2v15.4l13.2,7.7v-15.3L1389.6-396.2z"/>
				
					<linearGradient id="path53458_1_" gradientUnits="userSpaceOnUse" x1="1256.4528" y1="-160.5535" x2="1246.8361" y2="-174.5083" gradientTransform="matrix(5.6405 0 0 -5.6405 -5673.3481 -1296.5692)">
					<stop  offset="0" style="stop-color:#2B343E"/>
					<stop  offset="1" style="stop-color:#333F47"/>
				</linearGradient>
				<path id="path53458" class="st116" d="M1415.9-396.2v15.4l-13.2,7.7v-15.3L1415.9-396.2z"/>
				
					<linearGradient id="path53460_1_" gradientUnits="userSpaceOnUse" x1="1254.5245" y1="-158.7569" x2="1254.3866" y2="-168.6745" gradientTransform="matrix(5.6405 0 0 -5.6405 -5673.3481 -1296.5692)">
					<stop  offset="0" style="stop-color:#2B343E"/>
					<stop  offset="1" style="stop-color:#333F47"/>
				</linearGradient>
				<path id="path53460" class="st117" d="M1389.6-396.2l13.2,7.8l13.2-7.8l-13.2-7.5L1389.6-396.2z"/>
			</g>
		</g>
		
			<linearGradient id="path53466_1_" gradientUnits="userSpaceOnUse" x1="2361.9875" y1="1109.7224" x2="2355.2673" y2="1124.906" gradientTransform="matrix(2.5277 0 0 -2.5277 -3604.3733 3412.8115)">
			<stop  offset="0" style="stop-color:#2B343E"/>
			<stop  offset="1" style="stop-color:#333F47"/>
		</linearGradient>
		<path id="path53466" class="st118" d="M2363.6,592l-8.8,5v10.3l8.8,5.2l8.8-5.2V597L2363.6,592z"/>
		
			<linearGradient id="path53468_1_" gradientUnits="userSpaceOnUse" x1="2360.1489" y1="1108.9086" x2="2353.4285" y2="1124.0922" gradientTransform="matrix(2.5277 0 0 -2.5277 -3604.3733 3412.8115)">
			<stop  offset="0" style="stop-color:#2B343E"/>
			<stop  offset="1" style="stop-color:#333F47"/>
		</linearGradient>
		<path id="path53468" class="st119" d="M2354.8,597v10.3l8.8,5.2v-10.2L2354.8,597z"/>
		
			<linearGradient id="path53470_1_" gradientUnits="userSpaceOnUse" x1="2363.9053" y1="1112.5726" x2="2354.2888" y2="1098.6178" gradientTransform="matrix(2.5277 0 0 -2.5277 -3604.3733 3412.8115)">
			<stop  offset="0" style="stop-color:#2B343E"/>
			<stop  offset="1" style="stop-color:#333F47"/>
		</linearGradient>
		<path id="path53470" class="st120" d="M2372.4,597v10.3l-8.8,5.2v-10.2L2372.4,597z"/>
		
			<linearGradient id="path53472_1_" gradientUnits="userSpaceOnUse" x1="2361.0278" y1="1115.2539" x2="2360.8899" y2="1105.3364" gradientTransform="matrix(2.5277 0 0 -2.5277 -3604.3733 3412.8115)">
			<stop  offset="0" style="stop-color:#2B343E"/>
			<stop  offset="1" style="stop-color:#333F47"/>
		</linearGradient>
		<path id="path53472" class="st121" d="M2354.8,597l8.8,5.2l8.8-5.2l-8.8-5L2354.8,597z"/>
		<g id="g53480" transform="matrix(1.4809368,0,0,1.4809368,270.54092,1196.3844)" class="st25">
			
				<linearGradient id="path53474_1_" gradientUnits="userSpaceOnUse" x1="1277.7869" y1="-133.1713" x2="1266.9009" y2="-117.377" gradientTransform="matrix(5.5972 0 0 -5.5972 -5745.3071 -1123.8948)">
				<stop  offset="0" style="stop-color:#B9A44C"/>
				<stop  offset="1" style="stop-color:#F6CB3B;stop-opacity:0.698"/>
			</linearGradient>
			<path id="path53474" class="st122" d="M1394.9-397.8v15.4l13.2,7.7V-390L1394.9-397.8z"/>
			
				<linearGradient id="path53476_1_" gradientUnits="userSpaceOnUse" x1="1278.1619" y1="-133.4863" x2="1288.921" y2="-115.7509" gradientTransform="matrix(5.5972 0 0 -5.5972 -5745.3071 -1123.8948)">
				<stop  offset="0" style="stop-color:#A68E2B"/>
				<stop  offset="1" style="stop-color:#F6D752;stop-opacity:0.451"/>
			</linearGradient>
			<path id="path53476" class="st123" d="M1421.2-397.8v15.4l-13.2,7.7V-390L1421.2-397.8z"/>
			
				<linearGradient id="path53478_1_" gradientUnits="userSpaceOnUse" x1="1275.6028" y1="-129.7469" x2="1302.5845" y2="-129.7469" gradientTransform="matrix(5.5972 0 0 -5.5972 -5745.3071 -1123.8948)">
				<stop  offset="0" style="stop-color:#F6BC00;stop-opacity:0.698"/>
				<stop  offset="1" style="stop-color:#F6D752;stop-opacity:0.451"/>
			</linearGradient>
			<path id="path53478" class="st124" d="M1394.9-397.8l13.2,7.8l13.2-7.8l-13.2-7.5L1394.9-397.8z"/>
		</g>
		
			<linearGradient id="path53482_1_" gradientUnits="userSpaceOnUse" x1="2242.5178" y1="1043.4739" x2="2235.7974" y2="1058.6573" gradientTransform="matrix(3.7795 0 0 -3.7795 -6108.3818 4587.2715)">
			<stop  offset="0" style="stop-color:#2B343E"/>
			<stop  offset="1" style="stop-color:#333F47"/>
		</linearGradient>
		<path id="path53482" class="st125" d="M2363.6,619.9l-13.2,7.5v15.4l13.2,7.7l13.2-7.7v-15.4L2363.6,619.9z"/>
		<g id="g53490" transform="translate(626.29788,1124.5484)">
			
				<linearGradient id="path53484_1_" gradientUnits="userSpaceOnUse" x1="1614.3812" y1="-81.8883" x2="1607.6609" y2="-66.7048" gradientTransform="matrix(3.7795 0 0 -3.7795 -4367.5698 -787.5386)">
				<stop  offset="0" style="stop-color:#2B343E"/>
				<stop  offset="1" style="stop-color:#333F47"/>
			</linearGradient>
			<path id="path53484" class="st126" d="M1724.1-497.1v15.4l13.2,7.7v-15.3L1724.1-497.1z"/>
			
				<linearGradient id="path53486_1_" gradientUnits="userSpaceOnUse" x1="1618.1377" y1="-78.2242" x2="1608.5211" y2="-92.179" gradientTransform="matrix(3.7795 0 0 -3.7795 -4367.5698 -787.5386)">
				<stop  offset="0" style="stop-color:#2B343E"/>
				<stop  offset="1" style="stop-color:#333F47"/>
			</linearGradient>
			<path id="path53486" class="st127" d="M1750.4-497.1v15.4l-13.2,7.7v-15.3L1750.4-497.1z"/>
			
				<linearGradient id="path53488_1_" gradientUnits="userSpaceOnUse" x1="1615.2601" y1="-75.543" x2="1615.1222" y2="-85.4605" gradientTransform="matrix(3.7795 0 0 -3.7795 -4367.5698 -787.5386)">
				<stop  offset="0" style="stop-color:#2B343E"/>
				<stop  offset="1" style="stop-color:#333F47"/>
			</linearGradient>
			<path id="path53488" class="st128" d="M1724.1-497.1l13.2,7.8l13.2-7.8l-13.2-7.5L1724.1-497.1z"/>
		</g>
		<g id="g53498" transform="matrix(1.4809368,0,0,1.4809368,278.36185,1212.7881)" class="st25">
			
				<linearGradient id="path53492_1_" gradientUnits="userSpaceOnUse" x1="1272.5057" y1="-144.2478" x2="1261.6198" y2="-128.4536" gradientTransform="matrix(5.5972 0 0 -5.5972 -5715.7476 -1185.8931)">
				<stop  offset="0" style="stop-color:#B9A44C"/>
				<stop  offset="1" style="stop-color:#F6CB3B;stop-opacity:0.698"/>
			</linearGradient>
			<path id="path53492" class="st129" d="M1394.9-397.8v15.4l13.2,7.7V-390L1394.9-397.8z"/>
			
				<linearGradient id="path53494_1_" gradientUnits="userSpaceOnUse" x1="1272.8809" y1="-144.5628" x2="1283.6399" y2="-126.8275" gradientTransform="matrix(5.5972 0 0 -5.5972 -5715.7476 -1185.8931)">
				<stop  offset="0" style="stop-color:#A68E2B"/>
				<stop  offset="1" style="stop-color:#F6D752;stop-opacity:0.451"/>
			</linearGradient>
			<path id="path53494" class="st130" d="M1421.2-397.8v15.4l-13.2,7.7V-390L1421.2-397.8z"/>
			
				<linearGradient id="path53496_1_" gradientUnits="userSpaceOnUse" x1="1270.3217" y1="-140.8234" x2="1297.3035" y2="-140.8234" gradientTransform="matrix(5.5972 0 0 -5.5972 -5715.7476 -1185.8931)">
				<stop  offset="0" style="stop-color:#F6BC00;stop-opacity:0.698"/>
				<stop  offset="1" style="stop-color:#F6D752;stop-opacity:0.451"/>
			</linearGradient>
			<path id="path53496" class="st131" d="M1394.9-397.8l13.2,7.8l13.2-7.8l-13.2-7.5L1394.9-397.8z"/>
		</g>
		
			<linearGradient id="path53500_1_" gradientUnits="userSpaceOnUse" x1="2242.5178" y1="1043.4739" x2="2235.7974" y2="1058.6573" gradientTransform="matrix(3.7795 0 0 -3.7795 -6066.6055 4585.3374)">
			<stop  offset="0" style="stop-color:#2B343E"/>
			<stop  offset="1" style="stop-color:#333F47"/>
		</linearGradient>
		<path id="path53500" class="st132" d="M2405.4,617.9l-13.2,7.5v15.4l13.2,7.7l13.2-7.7v-15.4L2405.4,617.9z"/>
		<g id="g53508" transform="translate(668.07447,1122.6144)">
			
				<linearGradient id="path53502_1_" gradientUnits="userSpaceOnUse" x1="1572.6046" y1="-79.9543" x2="1565.8843" y2="-64.7708" gradientTransform="matrix(3.7795 0 0 -3.7795 -4209.6738 -780.2291)">
				<stop  offset="0" style="stop-color:#2B343E"/>
				<stop  offset="1" style="stop-color:#333F47"/>
			</linearGradient>
			<path id="path53502" class="st133" d="M1724.1-497.1v15.4l13.2,7.7v-15.3L1724.1-497.1z"/>
			
				<linearGradient id="path53504_1_" gradientUnits="userSpaceOnUse" x1="1576.3611" y1="-76.2903" x2="1566.7445" y2="-90.2451" gradientTransform="matrix(3.7795 0 0 -3.7795 -4209.6738 -780.2291)">
				<stop  offset="0" style="stop-color:#2B343E"/>
				<stop  offset="1" style="stop-color:#333F47"/>
			</linearGradient>
			<path id="path53504" class="st134" d="M1750.4-497.1v15.4l-13.2,7.7v-15.3L1750.4-497.1z"/>
			
				<linearGradient id="path53506_1_" gradientUnits="userSpaceOnUse" x1="1573.4835" y1="-73.609" x2="1573.3456" y2="-83.5265" gradientTransform="matrix(3.7795 0 0 -3.7795 -4209.6738 -780.2291)">
				<stop  offset="0" style="stop-color:#2B343E"/>
				<stop  offset="1" style="stop-color:#333F47"/>
			</linearGradient>
			<path id="path53506" class="st135" d="M1724.1-497.1l13.2,7.8l13.2-7.8l-13.2-7.5L1724.1-497.1z"/>
		</g>
		<g id="g53516" transform="matrix(0.76685181,0,0,0.76685181,836.58904,1061.8856)">
			
				<linearGradient id="path53510_1_" gradientUnits="userSpaceOnUse" x1="1927.3085" y1="27.8985" x2="1916.4225" y2="43.6927" gradientTransform="matrix(2.8983 0 0 -2.8983 -3541.7368 -489.9902)">
				<stop  offset="0" style="stop-color:#B9A44C"/>
				<stop  offset="1" style="stop-color:#F6CB3B;stop-opacity:0.698"/>
			</linearGradient>
			<path id="path53510" class="st136" d="M2032.4-590.1v15.4l13.2,7.7v-15.3L2032.4-590.1z"/>
			
				<linearGradient id="path53512_1_" gradientUnits="userSpaceOnUse" x1="1928.0327" y1="27.2902" x2="1938.7917" y2="45.0255" gradientTransform="matrix(2.8983 0 0 -2.8983 -3541.7368 -489.9902)">
				<stop  offset="0" style="stop-color:#A68E2B"/>
				<stop  offset="1" style="stop-color:#F6D752;stop-opacity:0.451"/>
			</linearGradient>
			<path id="path53512" class="st137" d="M2058.7-590.1v15.4l-13.2,7.7v-15.3L2058.7-590.1z"/>
			
				<linearGradient id="path53514_1_" gradientUnits="userSpaceOnUse" x1="1923.0905" y1="34.5117" x2="1950.0723" y2="34.5117" gradientTransform="matrix(2.8983 0 0 -2.8983 -3541.7368 -489.9902)">
				<stop  offset="0" style="stop-color:#F6BC00;stop-opacity:0.698"/>
				<stop  offset="1" style="stop-color:#F6D752;stop-opacity:0.451"/>
			</linearGradient>
			<path id="path53514" class="st138" d="M2032.4-590.1l13.2,7.8l13.2-7.8l-13.2-7.5L2032.4-590.1z"/>
		</g>
	</g>
	<g id="g54022" transform="translate(-1185.8936,106.7234)">
		<path id="path293542" class="st112" d="M2450.5,901.1c-0.7-0.4-1.6-0.2-2.1,0.5c0,0,0,0,0,0c-0.4,0.7-0.2,1.6,0.5,2.1l10.2,6.3
			c0,0,0,0,0,0c4.3,2.5,6.2,3.9,7.1,5.6c0.9,1.6,0.9,4.1,0.9,8.8V1059c0,2.3,0,4.1-0.1,5.3c-0.1,1.2-0.4,1.6-0.3,1.5c0,0,0.1,0,0,0
			c-0.2,0-0.5-0.1-1-0.3c-1-0.4-2.6-1.2-4.6-2.4c0,0,0,0,0,0l-10.5-5.9c-0.7-0.4-1.6-0.2-2,0.6c0,0,0,0,0,0c-0.4,0.7-0.2,1.6,0.6,2
			c0,0,0,0,0,0l10.5,5.9l0,0c2.1,1.2,3.7,2.1,5.1,2.6c0.7,0.3,1.3,0.4,2,0.5c0.7,0,1.4-0.2,2-0.6c1.1-0.9,1.4-2.2,1.5-3.6
			s0.1-3.3,0.1-5.6V924.3c0-4.7,0.1-7.6-1.3-10.2c-1.3-2.5-3.8-4.2-8.2-6.8l0,0L2450.5,901.1z"/>
		<g id="g293552" transform="matrix(0.78816757,0,0,0.78816757,328.31739,717.48574)">
			
				<linearGradient id="path293544_1_" gradientUnits="userSpaceOnUse" x1="2147.123" y1="508.2047" x2="2122.2966" y2="455.2819" gradientTransform="matrix(-4.6875 0 0 -4.6875 12666.6396 2559.6658)">
				<stop  offset="0" style="stop-color:#F6BC00"/>
				<stop  offset="1" style="stop-color:#F6BC00"/>
			</linearGradient>
			<path id="path293544" class="st139" d="M2673,181.5c7.4,5.1,9.7,10.7,9.9,16.6v49.9c0,6.1-2.1,5.9-15.1,11.9l-136.6-84.5
				c-5-3.7-9-8.2-8.7-17l-8.5-48.3c12.9-9.6,14.3-8.3,19.3-5.8L2673,181.5z"/>
			<path id="path293546" class="st78" d="M2673,181.5c6.8,4.7,9.3,9.8,9.8,15.2l-11.7,6.9c0,0-3.9,1.6-4.3,1.6s-5.9-17.4-5.9-17.4
				L2673,181.5z"/>
			<path id="path293548" class="st79" d="M2528,102.5c1.9,0,3.3,0.8,5.3,1.8l-12.1,6.2l-6.8,1.8l-0.4-2.2
				C2521.7,104.3,2525.3,102.5,2528,102.5z"/>
			
				<linearGradient id="path293550_1_" gradientUnits="userSpaceOnUse" x1="2141.0007" y1="516.1025" x2="2174.9409" y2="477.9119" gradientTransform="matrix(-4.6875 0 0 -4.6875 12666.6396 2559.6658)">
				<stop  offset="0" style="stop-color:#FBECB0"/>
				<stop  offset="1" style="stop-color:#F7DA5E"/>
			</linearGradient>
			<path id="path293550" class="st140" d="M2660.9,187.7c7.4,5.1,9.7,10.7,9.9,16.6v49.9c0,6.1-4.5,8.3-11,4.7l-140.6-77.2
				c-5-3.7-9-8.2-8.7-17l0.4-47.5c-0.3-7.5,5.4-9.1,10.4-6.6L2660.9,187.7z"/>
		</g>
		<path id="path293556" class="st78" d="M2434.2,1048.1c5.9,4.1,8.2,8.6,8.6,13.3l-10.3,6.1c0,0-3.4,1.4-3.8,1.4
			c-0.3,0-5.2-15.3-5.2-15.3L2434.2,1048.1z"/>
		<path id="path293558" class="st79" d="M2388.3,1022.3c1.6,0,2.9,0.7,4.7,1.6l-10.6,5.5l-6,1.6l-0.3-2
			C2382.7,1024,2385.9,1022.3,2388.3,1022.3L2388.3,1022.3z"/>
		<text transform="matrix(0.2291 0.1323 0 0.2646 2311.9814 836.8734)" class="st76 st141 st142">Auth Service</text>
		<g id="g293578" transform="matrix(0.78816757,0,0,0.78816757,328.31739,811.57085)">
			
				<linearGradient id="path293570_1_" gradientUnits="userSpaceOnUse" x1="2151.4023" y1="386.8253" x2="2126.5759" y2="333.9024" gradientTransform="matrix(-4.6875 0 0 -4.6875 12666.6396 2000.1071)">
				<stop  offset="0" style="stop-color:#F6BC00"/>
				<stop  offset="1" style="stop-color:#F6BC00"/>
			</linearGradient>
			<path id="path293570" class="st143" d="M2673,181.5c7.4,5.1,9.7,10.7,9.9,16.6l-0.3,153.6c0,6.1-2.1,5.9-15.1,11.9L2531,279.1
				c-5-3.7-9-8.2-8.7-17l-8.2-152.1c12.9-9.6,14.3-8.3,19.3-5.8L2673,181.5z"/>
			<path id="path293572" class="st78" d="M2673,181.5c6.8,4.7,9.3,9.8,9.8,15.2l-11.7,6.9c0,0-3.9,1.6-4.3,1.6s-5.9-17.4-5.9-17.4
				L2673,181.5z"/>
			<path id="path293574" class="st79" d="M2528,102.5c1.9,0,3.3,0.8,5.3,1.8l-12.1,6.2l-6.8,1.8l-0.4-2.2
				C2521.7,104.3,2525.3,102.5,2528,102.5z"/>
			
				<linearGradient id="path293576_1_" gradientUnits="userSpaceOnUse" x1="2139.3926" y1="393.5287" x2="2189.3103" y2="307.6692" gradientTransform="matrix(-4.6875 0 0 -4.6875 12666.6396 2000.1071)">
				<stop  offset="0" style="stop-color:#FBECB0"/>
				<stop  offset="1" style="stop-color:#F5D23D"/>
			</linearGradient>
			<path id="path293576" class="st144" d="M2660.9,187.7c7.4,5.1,9.7,10.7,9.9,16.6l-0.3,153.6c0,6.1-4.5,8.3-11,4.7l-140.6-77.2
				c-5-3.7-9-8.2-8.7-17l0.7-151.2c-0.3-7.5,5.4-9.1,10.4-6.6L2660.9,187.7z"/>
		</g>
		<g id="text293582" transform="matrix(0.93060463,0.53728509,0,1.0745702,0,0)">
			<path id="path26577" class="st112" d="M2494.6-467h-6l-1.2,3.6h-2.8l5.8-15.4h2.4l5.8,15.4h-2.8L2494.6-467z M2489.4-469.1h4.5
				l-2.2-6.4L2489.4-469.1z"/>
			<path id="path26579" class="st112" d="M2506.9-464.5c-0.8,0.9-1.8,1.3-3.2,1.3c-1.2,0-2.2-0.4-2.8-1.1c-0.6-0.7-1-1.8-1-3.2v-7.4
				h2.6v7.4c0,1.5,0.6,2.2,1.8,2.2c1.2,0,2.1-0.4,2.5-1.3v-8.2h2.6v11.4h-2.4L2506.9-464.5z"/>
			<path id="path26581" class="st112" d="M2515.3-477.6v2.8h2v1.9h-2v6.4c0,0.4,0.1,0.8,0.3,1c0.2,0.2,0.5,0.3,0.9,0.3
				c0.3,0,0.6,0,0.9-0.1v2c-0.6,0.2-1.1,0.2-1.7,0.2c-2,0-3-1.1-3-3.3v-6.5h-1.9v-1.9h1.9v-2.8L2515.3-477.6z"/>
			<path id="path26583" class="st112" d="M2521.8-473.6c0.8-1,1.9-1.5,3.2-1.5c2.4,0,3.7,1.4,3.7,4.2v7.5h-2.6v-7.4
				c0-0.8-0.2-1.3-0.5-1.7c-0.3-0.3-0.8-0.5-1.5-0.5c-1,0-1.8,0.5-2.3,1.4v8.2h-2.6v-16.3h2.6L2521.8-473.6z"/>
			<path id="path26585" class="st112" d="M2545-467.4c0-0.7-0.2-1.2-0.7-1.6c-0.5-0.4-1.3-0.7-2.6-1.1s-2.2-0.8-3-1.2
				c-1.4-0.9-2.1-2-2.1-3.4c0-1.2,0.5-2.3,1.5-3.1c1-0.8,2.3-1.2,3.9-1.2c1.1,0,2,0.2,2.9,0.6c0.8,0.4,1.5,1,2,1.7
				c0.5,0.7,0.7,1.5,0.7,2.4h-2.7c0-0.8-0.3-1.4-0.8-1.9c-0.5-0.5-1.2-0.7-2.2-0.7c-0.9,0-1.6,0.2-2,0.6c-0.5,0.4-0.7,0.9-0.7,1.6
				c0,0.6,0.3,1,0.8,1.4c0.5,0.4,1.4,0.7,2.6,1.1c1.2,0.4,2.2,0.8,2.9,1.2c0.7,0.5,1.3,1,1.6,1.6c0.3,0.6,0.5,1.3,0.5,2.1
				c0,1.3-0.5,2.3-1.5,3.1c-1,0.8-2.3,1.1-4,1.1c-1.1,0-2.1-0.2-3.1-0.6c-0.9-0.4-1.7-1-2.2-1.7c-0.5-0.7-0.8-1.6-0.8-2.5h2.7
				c0,0.9,0.3,1.6,0.9,2c0.6,0.5,1.4,0.7,2.5,0.7c0.9,0,1.6-0.2,2.1-0.6C2544.7-466.2,2545-466.7,2545-467.4L2545-467.4z"/>
			<path id="path26587" class="st112" d="M2554.8-463.2c-1.6,0-3-0.5-4-1.5c-1-1-1.5-2.4-1.5-4.1v-0.3c0-1.1,0.2-2.2,0.7-3.1
				c0.4-0.9,1.1-1.6,1.9-2.1s1.7-0.8,2.7-0.8c1.6,0,2.8,0.5,3.6,1.5c0.9,1,1.3,2.4,1.3,4.2v1h-7.5c0.1,0.9,0.4,1.7,0.9,2.2
				c0.6,0.6,1.3,0.8,2.1,0.8c1.2,0,2.1-0.5,2.9-1.4l1.4,1.3c-0.5,0.7-1.1,1.2-1.8,1.6C2556.6-463.4,2555.7-463.2,2554.8-463.2
				L2554.8-463.2z M2554.5-473c-0.7,0-1.3,0.2-1.7,0.7c-0.4,0.5-0.7,1.2-0.8,2.1h4.9v-0.2c-0.1-0.9-0.3-1.5-0.7-1.9
				C2555.8-472.8,2555.2-473,2554.5-473L2554.5-473z"/>
			<path id="path26589" class="st112" d="M2567.4-472.5c-0.3-0.1-0.7-0.1-1-0.1c-1.2,0-2,0.5-2.4,1.4v7.8h-2.6v-11.4h2.5l0.1,1.3
				c0.6-1,1.5-1.5,2.6-1.5c0.4,0,0.7,0,0.9,0.1L2567.4-472.5z"/>
			<path id="path26591" class="st112" d="M2573.2-466.7l2.4-8.2h2.7l-4,11.4h-2.2l-4-11.4h2.7L2573.2-466.7z"/>
			<path id="path26593" class="st112" d="M2582.6-463.4h-2.6v-11.4h2.6V-463.4z M2579.9-477.8c0-0.4,0.1-0.7,0.4-1
				c0.3-0.3,0.6-0.4,1.1-0.4c0.5,0,0.8,0.1,1.1,0.4c0.3,0.3,0.4,0.6,0.4,1c0,0.4-0.1,0.7-0.4,1c-0.3,0.3-0.6,0.4-1.1,0.4
				s-0.8-0.1-1.1-0.4C2580-477.1,2579.9-477.4,2579.9-477.8z"/>
			<path id="path26595" class="st112" d="M2590.1-465.2c0.6,0,1.2-0.2,1.6-0.6c0.4-0.4,0.6-0.8,0.7-1.4h2.4c0,0.7-0.2,1.4-0.7,2
				c-0.4,0.6-1,1.1-1.7,1.5c-0.7,0.4-1.5,0.5-2.3,0.5c-1.6,0-2.9-0.5-3.8-1.6c-0.9-1-1.4-2.5-1.4-4.3v-0.3c0-1.7,0.5-3.1,1.4-4.2
				c0.9-1.1,2.2-1.6,3.8-1.6c1.4,0,2.5,0.4,3.3,1.2c0.9,0.8,1.3,1.8,1.4,3.1h-2.4c0-0.7-0.3-1.2-0.7-1.6c-0.4-0.4-0.9-0.6-1.6-0.6
				c-0.8,0-1.5,0.3-1.9,0.9c-0.5,0.6-0.7,1.5-0.7,2.7v0.4c0,1.2,0.2,2.2,0.7,2.8C2588.6-465.5,2589.3-465.2,2590.1-465.2
				L2590.1-465.2z"/>
			<path id="path26597" class="st112" d="M2601.8-463.2c-1.6,0-3-0.5-4-1.5c-1-1-1.5-2.4-1.5-4.1v-0.3c0-1.1,0.2-2.2,0.7-3.1
				c0.4-0.9,1.1-1.6,1.9-2.1c0.8-0.5,1.7-0.8,2.7-0.8c1.6,0,2.8,0.5,3.6,1.5c0.9,1,1.3,2.4,1.3,4.2v1h-7.5c0.1,0.9,0.4,1.7,0.9,2.2
				c0.6,0.6,1.3,0.8,2.1,0.8c1.2,0,2.1-0.5,2.9-1.4l1.4,1.3c-0.5,0.7-1.1,1.2-1.8,1.6C2603.6-463.4,2602.8-463.2,2601.8-463.2
				L2601.8-463.2z M2601.5-473c-0.7,0-1.3,0.2-1.7,0.7c-0.4,0.5-0.7,1.2-0.8,2.1h4.9v-0.2c-0.1-0.9-0.3-1.5-0.7-1.9
				C2602.8-472.8,2602.2-473,2601.5-473L2601.5-473z"/>
		</g>
		<g id="text293586" transform="matrix(0.93060463,0.53728509,0,1.0745702,0,0)">
			<path id="path26556" class="st112" d="M2502.8-381.2c-0.2,1.6-0.8,2.9-1.8,3.9c-1.1,0.9-2.5,1.4-4.2,1.4c-1.2,0-2.3-0.3-3.2-0.9
				c-0.9-0.6-1.7-1.4-2.2-2.5c-0.5-1.1-0.8-2.3-0.8-3.7v-1.4c0-1.5,0.3-2.7,0.8-3.8c0.5-1.1,1.3-2,2.2-2.6c1-0.6,2.1-0.9,3.3-0.9
				c1.7,0,3.1,0.5,4.1,1.4c1,0.9,1.6,2.2,1.8,3.9h-2.7c-0.1-1.1-0.5-1.9-1-2.4c-0.5-0.5-1.3-0.7-2.3-0.7c-1.2,0-2.1,0.4-2.7,1.3
				c-0.6,0.8-0.9,2.1-1,3.7v1.4c0,1.7,0.3,2.9,0.9,3.8c0.6,0.9,1.5,1.3,2.6,1.3c1.1,0,1.8-0.2,2.4-0.7c0.5-0.5,0.9-1.3,1-2.4
				L2502.8-381.2z"/>
			<path id="path26558" class="st112" d="M2511.8-376.2c-0.1-0.2-0.2-0.6-0.3-1.1c-0.8,0.9-1.8,1.3-3,1.3c-1.1,0-2.1-0.3-2.8-1
				s-1.1-1.5-1.1-2.4c0-1.2,0.5-2.2,1.4-2.8c0.9-0.7,2.2-1,3.9-1h1.6v-0.8c0-0.6-0.2-1.1-0.5-1.4c-0.3-0.4-0.8-0.5-1.5-0.5
				c-0.6,0-1.1,0.1-1.4,0.4c-0.4,0.3-0.6,0.7-0.6,1.1h-2.6c0-0.6,0.2-1.2,0.6-1.8c0.4-0.6,1-1,1.7-1.3c0.7-0.3,1.5-0.5,2.4-0.5
				c1.3,0,2.4,0.3,3.2,1c0.8,0.7,1.2,1.6,1.2,2.8v5.2c0,1,0.1,1.9,0.4,2.5v0.2H2511.8z M2509-378.1c0.5,0,1-0.1,1.4-0.4
				c0.5-0.2,0.8-0.6,1-1v-2.2h-1.4c-1,0-1.7,0.2-2.1,0.5c-0.5,0.3-0.7,0.8-0.7,1.4c0,0.5,0.2,0.9,0.5,1.2
				C2508-378.2,2508.4-378.1,2509-378.1L2509-378.1z"/>
			<path id="path26560" class="st112" d="M2519.9-390.5v2.8h2v1.9h-2v6.4c0,0.4,0.1,0.8,0.3,1c0.2,0.2,0.5,0.3,0.9,0.3
				c0.3,0,0.6,0,0.9-0.1v2c-0.6,0.2-1.1,0.2-1.7,0.2c-2,0-3-1.1-3-3.3v-6.5h-1.9v-1.9h1.9v-2.8H2519.9z"/>
			<path id="path26562" class="st112" d="M2537.6-380.2c0-0.7-0.2-1.2-0.7-1.6c-0.5-0.4-1.3-0.7-2.6-1.1c-1.2-0.4-2.2-0.8-3-1.2
				c-1.4-0.9-2.1-2-2.1-3.4c0-1.2,0.5-2.3,1.5-3.1c1-0.8,2.3-1.2,3.9-1.2c1.1,0,2,0.2,2.9,0.6c0.8,0.4,1.5,1,2,1.7
				c0.5,0.7,0.7,1.5,0.7,2.4h-2.7c0-0.8-0.3-1.4-0.8-1.9c-0.5-0.5-1.2-0.7-2.2-0.7c-0.9,0-1.6,0.2-2,0.6c-0.5,0.4-0.7,0.9-0.7,1.6
				c0,0.6,0.3,1,0.8,1.4c0.5,0.4,1.4,0.7,2.6,1.1c1.2,0.4,2.2,0.8,2.9,1.2c0.7,0.5,1.3,1,1.6,1.6c0.3,0.6,0.5,1.3,0.5,2.1
				c0,1.3-0.5,2.3-1.5,3.1c-1,0.8-2.3,1.1-4,1.1c-1.1,0-2.1-0.2-3.1-0.6c-0.9-0.4-1.7-1-2.2-1.7c-0.5-0.7-0.8-1.6-0.8-2.5h2.7
				c0,0.9,0.3,1.6,0.9,2c0.6,0.5,1.4,0.7,2.5,0.7c0.9,0,1.6-0.2,2.1-0.6C2537.3-379.1,2537.6-379.6,2537.6-380.2L2537.6-380.2z"/>
			<path id="path26564" class="st112" d="M2547.4-376c-1.6,0-3-0.5-4-1.5c-1-1-1.5-2.4-1.5-4.1v-0.3c0-1.1,0.2-2.2,0.7-3.1
				c0.4-0.9,1.1-1.6,1.9-2.1c0.8-0.5,1.7-0.8,2.7-0.8c1.6,0,2.8,0.5,3.6,1.5c0.9,1,1.3,2.4,1.3,4.2v1l-7.5,0
				c0.1,0.9,0.4,1.7,0.9,2.2c0.6,0.6,1.3,0.8,2.1,0.8c1.2,0,2.1-0.5,2.9-1.4l1.4,1.3c-0.5,0.7-1.1,1.2-1.8,1.6
				C2549.2-376.2,2548.4-376,2547.4-376L2547.4-376z M2547.1-385.8c-0.7,0-1.3,0.2-1.7,0.7c-0.4,0.5-0.7,1.2-0.8,2.1l4.9,0v-0.2
				c-0.1-0.9-0.3-1.5-0.7-1.9C2548.4-385.6,2547.8-385.8,2547.1-385.8z"/>
			<path id="path26566" class="st112" d="M2560-385.3c-0.3-0.1-0.7-0.1-1-0.1c-1.2,0-2,0.5-2.4,1.4v7.8h-2.6v-11.4h2.5l0.1,1.3
				c0.6-1,1.5-1.5,2.6-1.5c0.4,0,0.7,0,0.9,0.1L2560-385.3z"/>
			<path id="path26568" class="st112" d="M2565.8-379.5l2.4-8.2h2.7l-4,11.4h-2.2l-4-11.4h2.7L2565.8-379.5z"/>
			<path id="path26570" class="st112" d="M2575.2-376.2h-2.6v-11.4h2.6V-376.2z M2572.5-390.6c0-0.4,0.1-0.7,0.4-1
				c0.3-0.3,0.6-0.4,1.1-0.4c0.5,0,0.8,0.1,1.1,0.4c0.3,0.3,0.4,0.6,0.4,1c0,0.4-0.1,0.7-0.4,1c-0.3,0.3-0.6,0.4-1.1,0.4
				c-0.5,0-0.8-0.1-1.1-0.4C2572.6-389.9,2572.5-390.3,2572.5-390.6z"/>
			<path id="path26572" class="st112" d="M2582.8-378.1c0.6,0,1.2-0.2,1.6-0.6c0.4-0.4,0.6-0.8,0.7-1.4h2.4c0,0.7-0.3,1.4-0.7,2
				c-0.4,0.6-1,1.1-1.7,1.5c-0.7,0.4-1.5,0.5-2.3,0.5c-1.6,0-2.9-0.5-3.8-1.6c-0.9-1-1.4-2.5-1.4-4.3v-0.3c0-1.7,0.5-3.1,1.4-4.2
				c0.9-1.1,2.2-1.6,3.8-1.6c1.4,0,2.5,0.4,3.3,1.2c0.9,0.8,1.3,1.8,1.4,3.1h-2.4c0-0.7-0.3-1.2-0.7-1.6c-0.4-0.4-0.9-0.6-1.6-0.6
				c-0.8,0-1.5,0.3-1.9,0.9c-0.5,0.6-0.7,1.5-0.7,2.7v0.4c0,1.2,0.2,2.2,0.7,2.8C2581.3-378.4,2581.9-378.1,2582.8-378.1
				L2582.8-378.1z"/>
			<path id="path26574" class="st112" d="M2594.4-376c-1.6,0-3-0.5-4-1.5c-1-1-1.5-2.4-1.5-4.1v-0.3c0-1.1,0.2-2.2,0.7-3.1
				c0.4-0.9,1.1-1.6,1.9-2.1c0.8-0.5,1.7-0.8,2.7-0.8c1.6,0,2.8,0.5,3.6,1.5c0.9,1,1.3,2.4,1.3,4.2v1h-7.5c0.1,0.9,0.4,1.7,0.9,2.2
				c0.6,0.6,1.3,0.8,2.1,0.8c1.2,0,2.1-0.5,2.9-1.4l1.4,1.3c-0.5,0.7-1.1,1.2-1.8,1.6C2596.2-376.2,2595.4-376,2594.4-376
				L2594.4-376z M2594.1-385.8c-0.7,0-1.3,0.2-1.7,0.7c-0.4,0.5-0.7,1.2-0.8,2.1h4.9v-0.2c-0.1-0.9-0.3-1.5-0.7-1.9
				C2595.4-385.6,2594.8-385.8,2594.1-385.8z"/>
		</g>
		<path id="path293658" class="st145" d="M2442.7,1054.3l14.1,12.4v-9.9L2442.7,1054.3z"/>
		<path id="path293660" class="st145" d="M2442.7,898.7l14.1,12.4v-9.9L2442.7,898.7z"/>
		<path id="path293562" class="st146" d="M2410.1,1014.8c6.5,4.5,8.5,9.4,8.7,14.5v43.8c0,5.3-4,7.3-9.7,4.1l-42.1-24.2
			c-4.4-3.2-7.9-7.2-7.6-14.9l0.4-41.7c-0.3-6.6,4.7-8,9.1-5.8L2410.1,1014.8z"/>
		<path id="path293564" class="st112" d="M2388.1,1017.8v2.1v2.1l2.4,1.2l2.4,1.2v-2.1v-2.1l-2.4-1.2L2388.1,1017.8z M2376.4,1017.1
			v2.1v2.1l2.4,1.2l2.4,1.2v-2.1v-2.1l-2.4-1.2L2376.4,1017.1z M2382.3,1020.1v2.1v2.1l2.4,1.2l2.4,1.2v-2.1v-2.1l-2.4-1.2
			L2382.3,1020.1z M2388.1,1023v2.1v2.1l2.4,1.2l2.4,1.2v-2.1v-2.1l-2.4-1.2L2388.1,1023z M2404.9,1033.7c0,0-0.6,0.3-0.8,0.4
			c-0.4,0.3-0.7,0.9-0.9,1.8c-0.1,0.3-0.1,1.3,0,1.7c0.2,0.9,0.5,1.8,0.9,2.5c0.1,0.2,0.2,0.3,0.2,0.3c0,0-0.5,0-1.2-0.1
			c-0.2,0-0.6-0.1-0.7-0.1c-0.3-0.1-1-0.3-1.5-0.5c-0.3-0.1-1.3-0.6-16.6-8.2l-16.3-8.1l0,0.1c-0.1,0.6-0.1,0.6-0.1,1.6
			c0,1,0,1.3,0.2,2.1c0.2,1,0.5,2.2,0.9,3c0.1,0.1,0.2,0.5,0.3,0.7c0.1,0.3,0.2,0.5,0.2,0.5c0,0.1,0.6,1.2,1,1.9
			c0.8,1.3,2,2.9,3.1,4.1c0.6,0.7,1.4,1.5,2.1,2.1c1.8,1.6,4,3.1,6.3,4.4c0.6,0.3,2.7,1.4,3.5,1.7c3,1.3,5.5,2.1,8,2.6
			c2.8,0.5,5.3,0.6,7.4,0c2.6-0.6,4.6-2,6.1-4.1c0.1-0.2,0.2-0.4,0.3-0.4l0.1-0.1l0.8,0.4c1,0.5,1.5,0.7,2.3,0.9
			c0.6,0.2,1,0.2,1.5,0.2c0.9,0,1.6-0.2,2.1-0.7c0.1-0.1,0.2-0.2,0.3-0.3c0.1-0.1,0.2-0.2,0.2-0.2c0-0.1-1-1-1.3-1.3
			c-0.9-0.8-2-1.5-3-2c-0.5-0.2-1.2-0.5-1.5-0.6c-0.1,0-0.2-0.1-0.3-0.1c0,0-0.1-0.2-0.1-0.4c-0.2-0.9-0.6-1.9-1.3-3
			c-0.2-0.4-0.7-1.1-1-1.5C2405.8,1034.8,2404.9,1033.8,2404.9,1033.7L2404.9,1033.7z M2398.7,1033.4l-2.4-1.2l-2.4-1.2l0,2
			c0,1.1,0,2,0,2.1c0,0,0.5,0.3,2.4,1.2l2.4,1.2l0-2L2398.7,1033.4z M2370.6,1019.4v2.1v2.1l2.4,1.2l2.4,1.2v-2.1v-2.1l-2.4-1.2
			L2370.6,1019.4z M2376.4,1022.3v2.1v2.1l2.4,1.2l2.4,1.2v-2.1v-2.1l-2.4-1.2L2376.4,1022.3z M2382.3,1025.3v2.1v2.1l2.4,1.2
			l2.4,1.2v-2.1v-2.1l-2.4-1.2L2382.3,1025.3z M2388.1,1028.2v2.1v2.1l2.4,1.2l2.4,1.2v-2.1v-2.1l-2.4-1.2L2388.1,1028.2z
			 M2377.1,1031.6c0.4,0.2,0.9,0.5,1.3,0.9c0.6,0.6,1.1,1.3,1.3,2c0.1,0.3,0.1,0.8,0,1c-0.2,0.6-1,0.8-1.9,0.6l0,0
			c-0.2-0.1-0.4-0.1-0.6-0.2c-0.4-0.2-0.4-0.2-0.7-0.4c-0.8-0.6-1.5-1.5-1.8-2.3c-0.1-0.2-0.1-0.3-0.1-0.6c0-0.4,0-0.4,0.1-0.6
			c0.1-0.3,0.3-0.4,0.6-0.5c0.3-0.1,0.6-0.1,1,0C2376.6,1031.4,2376.9,1031.5,2377.1,1031.6L2377.1,1031.6z"/>
	</g>
</g>
</svg>
